<?xml version="1.0" encoding="UTF-8"?>
<svg width="40px" height="40px" viewBox="0 0 40 40" version="1.1" xmlns="http://www.w3.org/2000/svg" xmlns:xlink="http://www.w3.org/1999/xlink">
    <!-- Generator: Sketch 62 (91390) - https://sketch.com -->
    <title>Comments</title>
    <desc>Created with Sketch.</desc>
    <g id="Comments" stroke="none" stroke-width="1" fill="none" fill-rule="evenodd">
        <path d="M17.7857143,20.9187798 L12.4695028,16.4 L4,16.4 C3.58578644,16.4 3.21078644,16.2321068 2.93933983,15.9606602 C2.66789322,15.6892136 2.5,15.3142136 2.5,14.9 L2.5,7 C2.5,6.58578644 2.66789322,6.21078644 2.93933983,5.93933983 C3.21078644,5.66789322 3.58578644,5.5 4,5.5 L18,5.5 C18.4142136,5.5 18.7892136,5.66789322 19.0606602,5.93933983 C19.3321068,6.21078644 19.5,6.58578644 19.5,7 L19.5,15.1857143 C19.5,15.52103 19.3640864,15.8246015 19.1443439,16.0443439 C18.8189255,16.3697624 18.3096628,16.5113365 17.7857143,16.2999079 L17.7857143,20.9187798 Z" id="Rectangle" stroke="#979797"></path>
        <path d="M35.7857143,33.9187798 L30.4695028,29.4 L22,29.4 C21.5857864,29.4 21.2107864,29.2321068 20.9393398,28.9606602 C20.6678932,28.6892136 20.5,28.3142136 20.5,27.9 L20.5,20 C20.5,19.5857864 20.6678932,19.2107864 20.9393398,18.9393398 C21.2107864,18.6678932 21.5857864,18.5 22,18.5 L36,18.5 C36.4142136,18.5 36.7892136,18.6678932 37.0606602,18.9393398 C37.3321068,19.2107864 37.5,19.5857864 37.5,20 L37.5,28.1857143 C37.5,28.52103 37.3640864,28.8246015 37.1443439,29.0443439 C36.8189255,29.3697624 36.3096628,29.5113365 35.7857143,29.2999079 L35.7857143,33.9187798 Z" id="Rectangle-Copy" stroke="#979797" transform="translate(29.000000, 26.500000) scale(-1, 1) translate(-29.000000, -26.500000) "></path>
    </g>
</svg>