<?xml version="1.0" encoding="UTF-8"?>
<svg width="40px" height="40px" viewBox="0 0 40 40" version="1.1" xmlns="http://www.w3.org/2000/svg" xmlns:xlink="http://www.w3.org/1999/xlink">
    <!-- Generator: Sketch 62 (91390) - https://sketch.com -->
    <title>Garden</title>
    <desc>Created with Sketch.</desc>
    <g id="Garden" stroke="none" stroke-width="1" fill="none" fill-rule="evenodd">
        <rect id="Rectangle" stroke="#979797" x="10.5" y="24.5" width="2" height="9"></rect>
        <rect id="Rectangle-Copy" stroke="#979797" x="20.6911686" y="24.5" width="2" height="10"></rect>
        <path d="M22,33 C22.6666667,31.6666667 27.3333333,32.3333333 36,35" id="Line-13-Copy" stroke="#979797" fill="#FFFFFF" stroke-linecap="square"></path>
        <path d="M8.96915509,20.6620635 C9.14598406,19.8416553 9.3317624,18.9792946 9.49209166,18.0885765 C9.76773937,16.5572003 9.97682074,15.1099227 10.1636755,13.8159723 C10.434585,11.9399505 10.654346,10.3925407 10.9719306,9.39626681 C11.0790702,9.06016619 11.1912485,8.79382936 11.332389,8.61897116 C11.8087515,8.79382936 11.9209298,9.06016619 12.0280694,9.39626681 C12.345654,10.3925407 12.565415,11.9399505 12.8363245,13.8159723 C13.0231793,15.1099227 13.2322606,16.5572003 13.5079083,18.0885765 C13.6682376,18.9792946 13.8540159,19.8416553 14.0308449,20.6620635 C14.5253176,22.9561981 14.9956853,24.9143261 14.481403,26.1820188 C14.3110305,26.6019825 14.0146021,26.9284299 13.5511974,27.1477093 C13.0522709,27.3837974 12.380901,27.5 11.5,27.5 C10.619099,27.5 9.94772908,27.3837974 9.44880257,27.1477093 C8.98539785,26.9284299 8.68896948,26.6019825 8.51859705,26.1820188 C8.00431466,24.9143261 8.47468236,22.9561981 8.96915509,20.6620635 Z" id="Oval" stroke="#979797" fill="#FFFFFF"></path>
        <path d="M19.0475982,20.375482 C19.1973568,19.5579864 19.3534424,18.7057325 19.4937203,17.8289953 C19.7293016,16.3566123 19.9438368,14.8150167 20.1521207,13.3180874 C20.5365794,10.5549971 20.8981555,7.94528061 21.3352031,6.22007984 C21.4433264,5.7932743 21.5542335,5.42361572 21.6725367,5.12513666 C22.4048548,5.39713793 22.5482006,5.759828 22.6647969,6.22007984 C23.1018445,7.94528061 23.4634206,10.5549971 23.8478793,13.3180874 C24.0561632,14.8150167 24.2706984,16.3566123 24.5062797,17.8289953 C24.5695971,18.2247294 24.6336785,18.6154606 24.696785,19.0002397 C25.2079242,22.1168092 25.686695,24.8365421 25.071876,26.6078345 C24.8611442,27.2149523 24.5107519,27.6980829 23.9560194,28.0188825 C23.4015229,28.3395456 22.6593652,28.5 21.6911686,28.5 C20.7998529,28.5 20.1186231,28.3648624 19.6117735,28.0905074 C19.1209219,27.824812 18.8115112,27.4250592 18.629334,26.9187087 C18.0875129,25.41275 18.5502828,23.0902062 19.0475982,20.375482 Z" id="Oval-Copy" stroke="#979797" fill="#FFFFFF"></path>
        <path d="M4,35 C6,33.6666667 9.66666667,33 15,33 C20.3333333,33 24.3333333,33.6666667 27,35" id="Line-13" stroke="#979797" fill="#FFFFFF" stroke-linecap="square"></path>
    </g>
</svg>