<?xml version="1.0" encoding="UTF-8"?>
<svg width="40px" height="40px" viewBox="0 0 40 40" version="1.1" xmlns="http://www.w3.org/2000/svg" xmlns:xlink="http://www.w3.org/1999/xlink">
    <!-- Generator: Sketch 62 (91390) - https://sketch.com -->
    <title>Pets</title>
    <desc>Created with Sketch.</desc>
    <g id="Pets" stroke="none" stroke-width="1" fill="none" fill-rule="evenodd">
        <path d="M6.5,31.5 C6.5,29.4872195 8.58539631,25.4394069 11.7467479,22.3909607 C14.0241738,20.1948715 16.8829115,18.5 20,18.5 C23.1170885,18.5 25.9758262,20.1948715 28.2532521,22.3909607 C31.4146037,25.4394069 33.5,29.4872195 33.5,31.5 C33.5,32.2659799 33.1583974,32.9896522 32.5667089,33.6528669 C31.8956791,34.405014 30.9086341,35.0764027 29.6889393,35.6426896 C27.2093235,36.7939398 23.782767,37.5 20,37.5 C16.217233,37.5 12.7906765,36.7939398 10.3110607,35.6426896 C9.09136594,35.0764027 8.10432088,34.405014 7.43329111,33.6528669 C6.84160264,32.9896522 6.5,32.2659799 6.5,31.5 Z M10.5,10.5 C10.5,9.3954305 10.9477153,8.3954305 11.6715729,7.67157288 C12.3954305,6.94771525 13.3954305,6.5 14.5,6.5 C15.6045695,6.5 16.6045695,6.94771525 17.3284271,7.67157288 C18.0522847,8.3954305 18.5,9.3954305 18.5,10.5 C18.5,11.6045695 18.0522847,12.6045695 17.3284271,13.3284271 C16.6045695,14.0522847 15.6045695,14.5 14.5,14.5 C13.3954305,14.5 12.3954305,14.0522847 11.6715729,13.3284271 C10.9477153,12.6045695 10.5,11.6045695 10.5,10.5 Z M21.5,10.5 C21.5,9.3954305 21.9477153,8.3954305 22.6715729,7.67157288 C23.3954305,6.94771525 24.3954305,6.5 25.5,6.5 C26.6045695,6.5 27.6045695,6.94771525 28.3284271,7.67157288 C29.0522847,8.3954305 29.5,9.3954305 29.5,10.5 C29.5,11.6045695 29.0522847,12.6045695 28.3284271,13.3284271 C27.6045695,14.0522847 26.6045695,14.5 25.5,14.5 C24.3954305,14.5 23.3954305,14.0522847 22.6715729,13.3284271 C21.9477153,12.6045695 21.5,11.6045695 21.5,10.5 Z M28.5,17.5 C28.5,16.3954305 28.9477153,15.3954305 29.6715729,14.6715729 C30.3954305,13.9477153 31.3954305,13.5 32.5,13.5 C33.6045695,13.5 34.6045695,13.9477153 35.3284271,14.6715729 C36.0522847,15.3954305 36.5,16.3954305 36.5,17.5 C36.5,18.6045695 36.0522847,19.6045695 35.3284271,20.3284271 C34.6045695,21.0522847 33.6045695,21.5 32.5,21.5 C31.3954305,21.5 30.3954305,21.0522847 29.6715729,20.3284271 C28.9477153,19.6045695 28.5,18.6045695 28.5,17.5 Z M2.5,17.5 C2.5,16.3954305 2.94771525,15.3954305 3.67157288,14.6715729 C4.3954305,13.9477153 5.3954305,13.5 6.5,13.5 C7.6045695,13.5 8.6045695,13.9477153 9.32842712,14.6715729 C10.0522847,15.3954305 10.5,16.3954305 10.5,17.5 C10.5,18.6045695 10.0522847,19.6045695 9.32842712,20.3284271 C8.6045695,21.0522847 7.6045695,21.5 6.5,21.5 C5.3954305,21.5 4.3954305,21.0522847 3.67157288,20.3284271 C2.94771525,19.6045695 2.5,18.6045695 2.5,17.5 Z" id="Combined-Shape" stroke="#979797"></path>
    </g>
</svg>