<?xml version="1.0" encoding="UTF-8"?>
<svg width="30px" height="80px" viewBox="0 0 30 80">
    <g id="Button-L" stroke="none" strokeWidth="1" fill="none" fillRule="evenodd">
        <g id="Group-3" transform="translate(3.000000, 39.000000) scale(1, -1) translate(-3.000000, -39.000000) translate(-15.000000, -3.000000)">
            <g id="Group-2" transform="translate(0.000000, 16.860215)">
                <rect id="Rectangle-Copy-11" fill="#202020" x="9.44262295" y="0.903225806" width="19.1803279" height="13.8494624"></rect>
                <rect id="Rectangle-Copy-10" fill="#202020" x="0" y="17.4623656" width="19.1803279" height="13.8494624"></rect>
                <rect id="Rectangle" fill="#6A6A6A" x="9.44262295" y="0" width="10.0327869" height="12.0430108"></rect>
                <rect id="Rectangle-Copy-8" fill="#6A6A6A" x="9.44262295" y="24.3870968" width="15.9344262" height="14.7526882"></rect>
                <rect id="Rectangle-Copy-9" fill="#6A6A6A" x="11.5081967" y="50.5806452" width="18.5901639" height="16.5591398"></rect>
                <rect id="Rectangle" fill="#202020" x="7.08196721" y="46.0645161" width="19.1803279" height="13.8494624"></rect>
            </g>
            <g id="Group" transform="translate(11.508197, 0.000000)">
                <rect id="Rectangle" fill="#61483E" x="2.36065574" y="2.40860215" width="22.1311475" height="19.2688172"></rect>
                <rect id="Rectangle-Copy-4" fill="#371A0D" x="0" y="0" width="22.1311475" height="19.2688172"></rect>
                <rect id="Rectangle-Copy" fill="#61483E" x="2.36065574" y="28.9032258" width="11.2131148" height="9.03225806"></rect>
                <rect id="Rectangle-Copy-5" fill="#371A0D" x="0" y="26.4946237" width="11.2131148" height="9.03225806"></rect>
                <rect id="Rectangle-Copy-2" fill="#61483E" x="2.36065574" y="50.5806452" width="19.7704918" height="13.2473118"></rect>
                <rect id="Rectangle-Copy-6" fill="#371A0D" x="0" y="48.172043" width="19.7704918" height="13.2473118"></rect>
                <rect id="Rectangle-Copy-3" fill="#61483E" x="2.36065574" y="73.7634409" width="8.85245902" height="9.03225806"></rect>
                <rect id="Rectangle-Copy-7" fill="#371A0D" x="0" y="71.3548387" width="8.85245902" height="9.03225806"></rect>
            </g>
        </g>
    </g>
</svg>