<?xml version="1.0" encoding="UTF-8"?>
<svg width="972px" height="366px" viewBox="0 0 972 366" version="1.1" xmlns="http://www.w3.org/2000/svg" xmlns:xlink="http://www.w3.org/1999/xlink">
    <!-- Generator: Sketch 62 (91390) - https://sketch.com -->
    <title>LBM Logo</title>
    <desc>Created with Sketch.</desc>
    <g id="LBM-Logo" stroke="none" stroke-width="1" fill="none" fill-rule="evenodd">
        <polygon id="Rectangle-Copy-3" fill="#6D556B" points="52 324 854 324 864 334 62 334"></polygon>
        <g id="Group-Copy-33" transform="translate(854.000000, 267.000000)" stroke="#979797">
            <rect id="Rectangle" fill="#EFE4EE" x="10.5" y="10.5" width="56" height="56"></rect>
            <path d="M65.7928932,9.5 L10.2071068,9.5 L1.20710678,0.5 L56.7928932,0.5 L65.7928932,9.5 Z" id="Rectangle-Copy-2" fill="#FFFFFF"></path>
            <path d="M9.5,10.2071068 L9.5,65.7928932 L0.5,56.7928932 L0.5,1.20710678 L9.5,10.2071068 Z" id="Rectangle-Copy" fill="#6D556B"></path>
        </g>
        <g id="Group-Copy-34" transform="translate(854.000000, 208.000000)" stroke="#979797">
            <rect id="Rectangle" fill="#EFE4EE" x="10.5" y="10.5" width="56" height="56"></rect>
            <path d="M65.7928932,9.5 L10.2071068,9.5 L1.20710678,0.5 L56.7928932,0.5 L65.7928932,9.5 Z" id="Rectangle-Copy-2" fill="#FFFFFF"></path>
            <path d="M9.5,10.2071068 L9.5,65.7928932 L0.5,56.7928932 L0.5,1.20710678 L9.5,10.2071068 Z" id="Rectangle-Copy" fill="#6D556B"></path>
        </g>
        <g id="Group-Copy-35" transform="translate(854.000000, 149.000000)" stroke="#979797">
            <rect id="Rectangle" fill="#EFE4EE" x="10.5" y="10.5" width="56" height="56"></rect>
            <path d="M65.7928932,9.5 L10.2071068,9.5 L1.20710678,0.5 L56.7928932,0.5 L65.7928932,9.5 Z" id="Rectangle-Copy-2" fill="#FFFFFF"></path>
            <path d="M9.5,10.2071068 L9.5,65.7928932 L0.5,56.7928932 L0.5,1.20710678 L9.5,10.2071068 Z" id="Rectangle-Copy" fill="#6D556B"></path>
        </g>
        <g id="Group-Copy-36" transform="translate(854.000000, 90.000000)" stroke="#979797">
            <rect id="Rectangle" fill="#EFE4EE" x="10.5" y="10.5" width="56" height="56"></rect>
            <path d="M65.7928932,9.5 L10.2071068,9.5 L1.20710678,0.5 L56.7928932,0.5 L65.7928932,9.5 Z" id="Rectangle-Copy-2" fill="#FFFFFF"></path>
            <path d="M9.5,10.2071068 L9.5,65.7928932 L0.5,56.7928932 L0.5,1.20710678 L9.5,10.2071068 Z" id="Rectangle-Copy" fill="#6D556B"></path>
        </g>
        <g id="Group-Copy-37" transform="translate(854.000000, 31.000000)" stroke="#979797">
            <rect id="Rectangle" fill="#EFE4EE" x="10.5" y="10.5" width="56" height="56"></rect>
            <path d="M65.7928932,9.5 L10.2071068,9.5 L1.20710678,0.5 L56.7928932,0.5 L65.7928932,9.5 Z" id="Rectangle-Copy-2" fill="#FFFFFF"></path>
            <path d="M9.5,10.2071068 L9.5,65.7928932 L0.5,56.7928932 L0.5,1.20710678 L9.5,10.2071068 Z" id="Rectangle-Copy" fill="#6D556B"></path>
        </g>
        <g id="Group-Copy-32" transform="translate(795.000000, 100.000000)" stroke="#979797">
            <rect id="Rectangle" fill="#EFE4EE" x="10.5" y="10.5" width="56" height="56"></rect>
            <path d="M65.7928932,9.5 L10.2071068,9.5 L1.20710678,0.5 L56.7928932,0.5 L65.7928932,9.5 Z" id="Rectangle-Copy-2" fill="#6D556B"></path>
            <path d="M9.5,10.2071068 L9.5,65.7928932 L0.5,56.7928932 L0.5,1.20710678 L9.5,10.2071068 Z" id="Rectangle-Copy" fill="#6D556B"></path>
        </g>
        <g id="Group-Copy-31" transform="translate(736.000000, 130.000000)" stroke="#979797">
            <rect id="Rectangle" fill="#EFE4EE" x="10.5" y="10.5" width="56" height="56"></rect>
            <path d="M65.7928932,9.5 L10.2071068,9.5 L1.20710678,0.5 L56.7928932,0.5 L65.7928932,9.5 Z" id="Rectangle-Copy-2" fill="#6D556B"></path>
            <path d="M9.5,10.2071068 L9.5,65.7928932 L0.5,56.7928932 L0.5,1.20710678 L9.5,10.2071068 Z" id="Rectangle-Copy" fill="#6D556B"></path>
        </g>
        <g id="Group-Copy-30" transform="translate(677.000000, 100.000000)" stroke="#979797">
            <rect id="Rectangle" fill="#EFE4EE" x="10.5" y="10.5" width="56" height="56"></rect>
            <path d="M65.7928932,9.5 L10.2071068,9.5 L1.20710678,0.5 L56.7928932,0.5 L65.7928932,9.5 Z" id="Rectangle-Copy-2" fill="#FFFFFF"></path>
            <path d="M9.5,10.2071068 L9.5,65.7928932 L0.5,56.7928932 L0.5,1.20710678 L9.5,10.2071068 Z" id="Rectangle-Copy" fill="#6D556B"></path>
        </g>
        <g id="Group-Copy-25" transform="translate(618.000000, 267.000000)" stroke="#979797">
            <rect id="Rectangle" fill="#EFE4EE" x="10.5" y="10.5" width="56" height="56"></rect>
            <path d="M65.7928932,9.5 L10.2071068,9.5 L1.20710678,0.5 L56.7928932,0.5 L65.7928932,9.5 Z" id="Rectangle-Copy-2" fill="#FFFFFF"></path>
            <path d="M9.5,10.2071068 L9.5,65.7928932 L0.5,56.7928932 L0.5,1.20710678 L9.5,10.2071068 Z" id="Rectangle-Copy" fill="#6D556B"></path>
        </g>
        <g id="Group-Copy-26" transform="translate(618.000000, 208.000000)" stroke="#979797">
            <rect id="Rectangle" fill="#EFE4EE" x="10.5" y="10.5" width="56" height="56"></rect>
            <path d="M65.7928932,9.5 L10.2071068,9.5 L1.20710678,0.5 L56.7928932,0.5 L65.7928932,9.5 Z" id="Rectangle-Copy-2" fill="#FFFFFF"></path>
            <path d="M9.5,10.2071068 L9.5,65.7928932 L0.5,56.7928932 L0.5,1.20710678 L9.5,10.2071068 Z" id="Rectangle-Copy" fill="#6D556B"></path>
        </g>
        <g id="Group-Copy-27" transform="translate(618.000000, 149.000000)" stroke="#979797">
            <rect id="Rectangle" fill="#EFE4EE" x="10.5" y="10.5" width="56" height="56"></rect>
            <path d="M65.7928932,9.5 L10.2071068,9.5 L1.20710678,0.5 L56.7928932,0.5 L65.7928932,9.5 Z" id="Rectangle-Copy-2" fill="#FFFFFF"></path>
            <path d="M9.5,10.2071068 L9.5,65.7928932 L0.5,56.7928932 L0.5,1.20710678 L9.5,10.2071068 Z" id="Rectangle-Copy" fill="#6D556B"></path>
        </g>
        <g id="Group-Copy-28" transform="translate(618.000000, 90.000000)" stroke="#979797">
            <rect id="Rectangle" fill="#EFE4EE" x="10.5" y="10.5" width="56" height="56"></rect>
            <path d="M65.7928932,9.5 L10.2071068,9.5 L1.20710678,0.5 L56.7928932,0.5 L65.7928932,9.5 Z" id="Rectangle-Copy-2" fill="#FFFFFF"></path>
            <path d="M9.5,10.2071068 L9.5,65.7928932 L0.5,56.7928932 L0.5,1.20710678 L9.5,10.2071068 Z" id="Rectangle-Copy" fill="#6D556B"></path>
        </g>
        <g id="Group-Copy-29" transform="translate(618.000000, 31.000000)" stroke="#979797">
            <rect id="Rectangle" fill="#EFE4EE" x="10.5" y="10.5" width="56" height="56"></rect>
            <path d="M65.7928932,9.5 L10.2071068,9.5 L1.20710678,0.5 L56.7928932,0.5 L65.7928932,9.5 Z" id="Rectangle-Copy-2" fill="#FFFFFF"></path>
            <path d="M9.5,10.2071068 L9.5,65.7928932 L0.5,56.7928932 L0.5,1.20710678 L9.5,10.2071068 Z" id="Rectangle-Copy" fill="#6D556B"></path>
        </g>
        <g id="Group-Copy-23" transform="translate(500.000000, 247.000000)" stroke="#979797">
            <rect id="Rectangle" fill="#EFE4EE" x="10.5" y="10.5" width="56" height="56"></rect>
            <path d="M65.7928932,9.5 L10.2071068,9.5 L1.20710678,0.5 L56.7928932,0.5 L65.7928932,9.5 Z" id="Rectangle-Copy-2" fill="#FFFFFF"></path>
            <path d="M9.5,10.2071068 L9.5,65.7928932 L0.5,56.7928932 L0.5,1.20710678 L9.5,10.2071068 Z" id="Rectangle-Copy" fill="#6D556B"></path>
        </g>
        <g id="Group-Copy-24" transform="translate(500.000000, 188.000000)" stroke="#979797">
            <rect id="Rectangle" fill="#EFE4EE" x="10.5" y="10.5" width="56" height="56"></rect>
            <path d="M65.7928932,9.5 L10.2071068,9.5 L1.20710678,0.5 L56.7928932,0.5 L65.7928932,9.5 Z" id="Rectangle-Copy-2" fill="#6D556B"></path>
            <path d="M9.5,10.2071068 L9.5,65.7928932 L0.5,56.7928932 L0.5,1.20710678 L9.5,10.2071068 Z" id="Rectangle-Copy" fill="#6D556B"></path>
        </g>
        <g id="Group-Copy-21" transform="translate(500.000000, 110.000000)" stroke="#979797">
            <rect id="Rectangle" fill="#EFE4EE" x="10.5" y="10.5" width="56" height="56"></rect>
            <path d="M65.7928932,9.5 L10.2071068,9.5 L1.20710678,0.5 L56.7928932,0.5 L65.7928932,9.5 Z" id="Rectangle-Copy-2" fill="#FFFFFF"></path>
            <path d="M9.5,10.2071068 L9.5,65.7928932 L0.5,56.7928932 L0.5,1.20710678 L9.5,10.2071068 Z" id="Rectangle-Copy" fill="#6D556B"></path>
        </g>
        <g id="Group-Copy-22" transform="translate(500.000000, 51.000000)" stroke="#979797">
            <rect id="Rectangle" fill="#EFE4EE" x="10.5" y="10.5" width="56" height="56"></rect>
            <path d="M65.7928932,9.5 L10.2071068,9.5 L1.20710678,0.5 L56.7928932,0.5 L65.7928932,9.5 Z" id="Rectangle-Copy-2" fill="#FFFFFF"></path>
            <path d="M9.5,10.2071068 L9.5,65.7928932 L0.5,56.7928932 L0.5,1.20710678 L9.5,10.2071068 Z" id="Rectangle-Copy" fill="#6D556B"></path>
        </g>
        <g id="Group-Copy-20" transform="translate(441.000000, 147.000000)" stroke="#979797">
            <rect id="Rectangle" fill="#EFE4EE" x="10.5" y="10.5" width="56" height="56"></rect>
            <path d="M65.7928932,9.5 L10.2071068,9.5 L1.20710678,0.5 L56.7928932,0.5 L65.7928932,9.5 Z" id="Rectangle-Copy-2" fill="#6D556B"></path>
            <path d="M9.5,10.2071068 L9.5,65.7928932 L0.5,56.7928932 L0.5,1.20710678 L9.5,10.2071068 Z" id="Rectangle-Copy" fill="#D8D8D8"></path>
        </g>
        <g id="Group-Copy-19" transform="translate(441.000000, 267.000000)" stroke="#979797">
            <rect id="Rectangle" fill="#EFE4EE" x="10.5" y="10.5" width="56" height="56"></rect>
            <path d="M65.7928932,9.5 L10.2071068,9.5 L1.20710678,0.5 L56.7928932,0.5 L65.7928932,9.5 Z" id="Rectangle-Copy-2" fill="#6D556B"></path>
            <path d="M9.5,10.2071068 L9.5,65.7928932 L0.5,56.7928932 L0.5,1.20710678 L9.5,10.2071068 Z" id="Rectangle-Copy" fill="#D8D8D8"></path>
        </g>
        <g id="Group-Copy-13" transform="translate(382.000000, 267.000000)" stroke="#979797">
            <rect id="Rectangle" fill="#EFE4EE" x="10.5" y="10.5" width="56" height="56"></rect>
            <path d="M65.7928932,9.5 L10.2071068,9.5 L1.20710678,0.5 L56.7928932,0.5 L65.7928932,9.5 Z" id="Rectangle-Copy-2" fill="#FFFFFF"></path>
            <path d="M9.5,10.2071068 L9.5,65.7928932 L0.5,56.7928932 L0.5,1.20710678 L9.5,10.2071068 Z" id="Rectangle-Copy" fill="#6D556B"></path>
        </g>
        <g id="Group-Copy-18" transform="translate(441.000000, 36.000000)" stroke="#979797">
            <rect id="Rectangle" fill="#EFE4EE" x="10.5" y="10.5" width="56" height="56"></rect>
            <path d="M65.7928932,9.5 L10.2071068,9.5 L1.20710678,0.5 L56.7928932,0.5 L65.7928932,9.5 Z" id="Rectangle-Copy-2" fill="#FFFFFF"></path>
            <path d="M9.5,10.2071068 L9.5,65.7928932 L0.5,56.7928932 L0.5,1.20710678 L9.5,10.2071068 Z" id="Rectangle-Copy" fill="#D8D8D8"></path>
        </g>
        <g id="Group-Copy-14" transform="translate(382.000000, 208.000000)" stroke="#979797">
            <rect id="Rectangle" fill="#EFE4EE" x="10.5" y="10.5" width="56" height="56"></rect>
            <path d="M65.7928932,9.5 L10.2071068,9.5 L1.20710678,0.5 L56.7928932,0.5 L65.7928932,9.5 Z" id="Rectangle-Copy-2" fill="#FFFFFF"></path>
            <path d="M9.5,10.2071068 L9.5,65.7928932 L0.5,56.7928932 L0.5,1.20710678 L9.5,10.2071068 Z" id="Rectangle-Copy" fill="#6D556B"></path>
        </g>
        <g id="Group-Copy-15" transform="translate(382.000000, 149.000000)" stroke="#979797">
            <rect id="Rectangle" fill="#EFE4EE" x="10.5" y="10.5" width="56" height="56"></rect>
            <path d="M65.7928932,9.5 L10.2071068,9.5 L1.20710678,0.5 L56.7928932,0.5 L65.7928932,9.5 Z" id="Rectangle-Copy-2" fill="#FFFFFF"></path>
            <path d="M9.5,10.2071068 L9.5,65.7928932 L0.5,56.7928932 L0.5,1.20710678 L9.5,10.2071068 Z" id="Rectangle-Copy" fill="#6D556B"></path>
        </g>
        <g id="Group-Copy-16" transform="translate(382.000000, 90.000000)" stroke="#979797">
            <rect id="Rectangle" fill="#EFE4EE" x="10.5" y="10.5" width="56" height="56"></rect>
            <path d="M65.7928932,9.5 L10.2071068,9.5 L1.20710678,0.5 L56.7928932,0.5 L65.7928932,9.5 Z" id="Rectangle-Copy-2" fill="#FFFFFF"></path>
            <path d="M9.5,10.2071068 L9.5,65.7928932 L0.5,56.7928932 L0.5,1.20710678 L9.5,10.2071068 Z" id="Rectangle-Copy" fill="#6D556B"></path>
        </g>
        <g id="Group-Copy-17" transform="translate(382.000000, 31.000000)" stroke="#979797">
            <rect id="Rectangle" fill="#EFE4EE" x="10.5" y="10.5" width="56" height="56"></rect>
            <path d="M65.7928932,9.5 L10.2071068,9.5 L1.20710678,0.5 L56.7928932,0.5 L65.7928932,9.5 Z" id="Rectangle-Copy-2" fill="#FFFFFF"></path>
            <path d="M9.5,10.2071068 L9.5,65.7928932 L0.5,56.7928932 L0.5,1.20710678 L9.5,10.2071068 Z" id="Rectangle-Copy" fill="#6D556B"></path>
        </g>
        <g id="Group-Copy-6" transform="translate(264.000000, 267.000000)" stroke="#979797">
            <rect id="Rectangle" fill="#EFE4EE" x="10.5" y="10.5" width="56" height="56"></rect>
            <path d="M65.7928932,9.5 L10.2071068,9.5 L1.20710678,0.5 L56.7928932,0.5 L65.7928932,9.5 Z" id="Rectangle-Copy-2" fill="#FFFFFF"></path>
            <path d="M9.5,10.2071068 L9.5,65.7928932 L0.5,56.7928932 L0.5,1.20710678 L9.5,10.2071068 Z" id="Rectangle-Copy" fill="#D8D8D8"></path>
        </g>
        <g id="Group-Copy-5" transform="translate(205.000000, 267.000000)" stroke="#979797">
            <rect id="Rectangle" fill="#EFE4EE" x="10.5" y="10.5" width="56" height="56"></rect>
            <path d="M65.7928932,9.5 L10.2071068,9.5 L1.20710678,0.5 L56.7928932,0.5 L65.7928932,9.5 Z" id="Rectangle-Copy-2" fill="#FFFFFF"></path>
            <path d="M9.5,10.2071068 L9.5,65.7928932 L0.5,56.7928932 L0.5,1.20710678 L9.5,10.2071068 Z" id="Rectangle-Copy" fill="#D8D8D8"></path>
        </g>
        <g id="Group-Copy-4" transform="translate(146.000000, 267.000000)" stroke="#979797">
            <rect id="Rectangle" fill="#EFE4EE" x="10.5" y="10.5" width="56" height="56"></rect>
            <path d="M65.7928932,9.5 L10.2071068,9.5 L1.20710678,0.5 L56.7928932,0.5 L65.7928932,9.5 Z" id="Rectangle-Copy-2" fill="#FFFFFF"></path>
            <path d="M9.5,10.2071068 L9.5,65.7928932 L0.5,56.7928932 L0.5,1.20710678 L9.5,10.2071068 Z" id="Rectangle-Copy" fill="#6D556B"></path>
        </g>
        <g id="Group-Copy-3" transform="translate(146.000000, 208.000000)" stroke="#979797">
            <rect id="Rectangle" fill="#EFE4EE" x="10.5" y="10.5" width="56" height="56"></rect>
            <path d="M65.7928932,9.5 L10.2071068,9.5 L1.20710678,0.5 L56.7928932,0.5 L65.7928932,9.5 Z" id="Rectangle-Copy-2" fill="#FFFFFF"></path>
            <path d="M9.5,10.2071068 L9.5,65.7928932 L0.5,56.7928932 L0.5,1.20710678 L9.5,10.2071068 Z" id="Rectangle-Copy" fill="#6D556B"></path>
        </g>
        <g id="Group-Copy-2" transform="translate(146.000000, 149.000000)" stroke="#979797">
            <rect id="Rectangle" fill="#EFE4EE" x="10.5" y="10.5" width="56" height="56"></rect>
            <path d="M65.7928932,9.5 L10.2071068,9.5 L1.20710678,0.5 L56.7928932,0.5 L65.7928932,9.5 Z" id="Rectangle-Copy-2" fill="#FFFFFF"></path>
            <path d="M9.5,10.2071068 L9.5,65.7928932 L0.5,56.7928932 L0.5,1.20710678 L9.5,10.2071068 Z" id="Rectangle-Copy" fill="#6D556B"></path>
        </g>
        <g id="Group-Copy" transform="translate(146.000000, 90.000000)" stroke="#979797">
            <rect id="Rectangle" fill="#EFE4EE" x="10.5" y="10.5" width="56" height="56"></rect>
            <path d="M65.7928932,9.5 L10.2071068,9.5 L1.20710678,0.5 L56.7928932,0.5 L65.7928932,9.5 Z" id="Rectangle-Copy-2" fill="#FFFFFF"></path>
            <path d="M9.5,10.2071068 L9.5,65.7928932 L0.5,56.7928932 L0.5,1.20710678 L9.5,10.2071068 Z" id="Rectangle-Copy" fill="#6D556B"></path>
        </g>
        <g id="Box" transform="translate(146.000000, 31.000000)" stroke="#979797">
            <g id="Group">
                <rect id="Rectangle" fill="#EFE4EE" x="10.5" y="10.5" width="56" height="56"></rect>
                <path d="M65.7928932,9.5 L10.2071068,9.5 L1.20710678,0.5 L56.7928932,0.5 L65.7928932,9.5 Z" id="Rectangle-Copy-2" fill="#FFFFFF"></path>
                <path d="M9.5,10.2071068 L9.5,65.7928932 L0.5,56.7928932 L0.5,1.20710678 L9.5,10.2071068 Z" id="Rectangle-Copy" fill="#6D556B"></path>
            </g>
        </g>
    </g>
</svg>