<?xml version="1.0" encoding="UTF-8"?>
<svg width="100px" height="107px" viewBox="0 0 100 107" version="1.1" xmlns="http://www.w3.org/2000/svg" xmlns:xlink="http://www.w3.org/1999/xlink">
    <!-- Generator: Sketch 62 (91390) - https://sketch.com -->
    <title>Rectangle</title>
    <desc>Created with Sketch.</desc>
    <g id="Page-1" stroke="none" stroke-width="1" fill="none" fill-rule="evenodd" opacity="0.58442311">
        <g id="Artboard-Copy-6" transform="translate(-566.000000, -492.000000)" fill="#D8D8D8" stroke="#979797" stroke-width="4">
            <path d="M644.847194,564.480992 C644.624263,565.177573 644.0808,565.746342 643.140133,566.194279 C639.66735,567.847985 635.36052,565.808389 632.073352,564.47128 C628.926932,563.191423 626.479886,562.617741 625.211355,563.162056 C624.200845,563.595656 623.576064,564.533241 623.112963,565.747658 C622.8071,565.688824 622.505166,565.497804 622.187261,565.305368 C620.986795,564.578693 619.64608,563.824788 618.411112,563.58115 C617.053265,563.313269 615.789825,563.546219 614.698597,564.481333 C614.55834,564.601524 614.085376,564.727711 613.524691,564.964507 C610.837844,566.099251 606.91776,568.143127 606.122372,570.31115 C606.031736,570.558202 605.97309,570.830264 605.942354,571.122263 C605.988815,571.29883 606.048381,571.487296 606.122512,571.689231 C606.818938,573.586316 607.726271,573.745228 608.765694,573.942962 C609.06293,573.999507 609.43313,574.016394 609.717452,574.205984 C609.919549,574.85331 609.683809,575.81384 609.127342,577.297753 C608.505579,578.955788 607.965665,579.953496 607.416154,580.51384 C607.012751,580.925196 606.632289,580.842579 606.316253,580.833759 C605.477239,580.810343 604.71632,580.873012 603.988681,581.248674 C603.400395,581.552392 602.79414,582.052297 602.251685,583.028714 C601.137911,585.033507 601.175702,588.097928 601.334097,590.81431 C601.386218,591.708155 601.584862,592.605603 601.55014,593.232146 C600.361146,593.313285 598.937044,593 596,593 C594.873611,593 593.550746,593.949192 592.253128,595.531156 C591.830869,596.045944 591.484595,596.967275 590.880042,597.003601 C590.513438,597.025629 590.28758,596.395742 589.951646,596.090376 C588.531602,594.799552 586.76182,593.32367 584.243413,593.014868 C583.451288,592.917739 582.359602,593.276032 581.043702,593.996196 C580.349199,594.376283 579.536285,594.851766 578.604992,595.039396 C577.931749,595.175036 576.914096,595.206899 575.554535,595.154091 C576.696416,590.351717 576.674846,587.051108 575.820677,585.172272 C575.318229,584.067083 574.505887,583.447016 573.483403,583.128559 C572.631782,582.863317 571.562532,582.869571 570.449735,582.932831 C569.752865,582.972446 568.900889,583.25376 568.366145,582.793268 C568.016491,582.492166 568,581.858287 568,581 C568,576.533731 568.633937,571.440724 569.889561,565.720517 C571.655265,562.566412 572.657462,560.102477 572.969101,558.350201 C573.350841,556.203767 573.16757,553.177865 572.341206,549.270091 C575.669409,547.902942 577.358982,546.247609 577.897367,544.632456 C578.340782,543.302209 578.185636,541.216597 577.161722,538.343863 L595,540.221576 L595,536 L600.095076,536 L599.817592,530.027384 L608,527.470382 L608,520.778424 L589.445233,522.731557 L590.897657,514.743226 L603.65768,494.691762 L621.710361,505.143314 L662.212931,494.535498 L663.852444,513.389903 L652.791402,515.602112 L661.965825,530.510549 C661.23263,542.467036 659.778894,550.297811 657.346147,553.87538 C656.955032,554.450549 656.613098,554.853368 656.173069,554.88969 C655.312481,554.960727 654.488537,554.297177 653.643361,553.800999 C652.289944,553.006446 650.912254,552.286527 649.56363,552.160607 C648.271172,552.039932 646.962375,552.346479 645.664187,553.51151 C644.078678,554.93439 644.039936,557.312896 644.615948,560.314917 C644.880033,561.691261 645.261788,563.185532 644.847194,564.480992 Z" id="Rectangle"></path>
        </g>
    </g>
</svg>