<?xml version="1.0" encoding="UTF-8"?>
<svg width="63px" height="122px" viewBox="0 0 63 122" version="1.1" xmlns="http://www.w3.org/2000/svg" xmlns:xlink="http://www.w3.org/1999/xlink">
    <!-- Generator: Sketch 62 (91390) - https://sketch.com -->
    <title>Rectangle</title>
    <desc>Created with Sketch.</desc>
    <g id="Page-1" stroke="none" stroke-width="1" fill="none" fill-rule="evenodd" opacity="0.618432617">
        <g id="Artboard-Copy-6" transform="translate(-531.000000, -698.000000)" fill="#D8D8D8" stroke="#979797" stroke-width="3">
            <path d="M587.612121,808.290867 C583.865007,812.31882 580.664393,815.133614 577.98947,816.707099 C576.772586,817.422913 575.686202,817.87271 574.717677,818.016195 C573.978428,818.125713 573.325023,818.045728 572.771744,817.713761 C570.423227,816.304651 561.806941,806.178051 557.417336,793.508921 C556.319638,790.340783 555.697424,785.153266 555.499432,777.958736 C555.493076,777.727759 555.48727,777.498824 555.481355,777.272391 C555.305748,777.129863 555.128746,776.985554 554.950348,776.839466 C549.466549,772.348845 545.890478,768.819443 544.275398,766.210468 C543.605392,765.128151 543.249382,764.054868 543.249382,762.979771 C543.249382,761.631552 543.811224,760.3031 544.854923,758.973231 L532.5,742.5 L532.5,708.921165 L539.947699,710.783089 L543.28584,701.603202 L551.998084,717.28524 L566.366673,721.116864 L564.433945,738.511416 L575.5,750.583476 L575.5,759.461685 L592.405694,784.323 L587.612121,808.290867 Z" id="Rectangle"></path>
        </g>
    </g>
</svg>