<?xml version="1.0" encoding="UTF-8"?>
<svg width="92px" height="106px" viewBox="0 0 92 106" version="1.1" xmlns="http://www.w3.org/2000/svg" xmlns:xlink="http://www.w3.org/1999/xlink">
    <!-- Generator: Sketch 62 (91390) - https://sketch.com -->
    <title>Rectangle</title>
    <desc>Created with Sketch.</desc>
    <g id="Page-1" stroke="none" stroke-width="1" fill="none" fill-rule="evenodd" opacity="0.618186322">
        <g id="Artboard-Copy-6" transform="translate(-543.000000, -588.000000)" fill="#D8D8D8" stroke="#979797" stroke-width="4">
            <path d="M632.912626,607.451489 L621.308125,686.748912 C617.295996,686.280211 614.597798,686.505199 613.145247,687.191852 C610.7753,688.312181 609.022415,689.576723 607.618606,690.596203 C606.682594,691.275958 606.033772,692.139798 605.315531,692.025047 C604.821061,690.592173 604.488396,689.08349 604.144813,687.616743 C603.744267,685.90682 603.331975,684.243799 602.805277,683.139202 C602.213115,681.897312 601.409239,681.328835 600.60625,681.036967 C599.67471,680.698373 598.639167,680.810698 597.725846,681.005187 C595.931063,679.629454 595.808366,676.225774 595.452065,673.664453 C594.970464,670.202406 594.089407,667.874614 592.973377,667.252849 C587.566014,664.240288 584.414267,662.847235 582.611053,662.049874 C581.8727,661.723382 581.405691,661.539729 581.13461,661.352985 C580.953129,660.007531 581.242154,658.440979 579.83414,655.202548 C579.335492,654.055656 578.3044,653.221436 576.736909,652.787439 C575.427978,652.42503 573.685026,652.353818 571.941361,652.308933 C570.680606,652.27648 569.42056,652.258499 568.418118,652.044194 C568.275469,651.831413 568.202968,651.665255 568.143751,651.474998 L571.861143,646.518477 C564.783592,641.754663 560.620558,638.792131 559.414214,637.585786 C556.874148,635.045721 557.600257,632.259967 558.012385,630.144031 C558.468847,627.800477 558.479679,626.010439 557.618061,624.824466 C557.189872,624.235087 556.791454,623.858295 556.447545,623.617195 C555.660937,623.065738 554.958046,623.000862 554.340818,623.109124 C553.467486,623.262306 552.540587,624.061596 551.736655,625.434401 C551.617295,625.638223 551.532534,625.907295 551.401171,626.104827 C550.5098,625.466193 549.388925,623.89949 547.736486,621.007722 C546.880186,619.509196 546.341749,618.384423 546.341749,617.598061 C546.341749,616.893055 546.774536,615.91604 547.48116,614.641547 L546.106107,612.808143 L551.557067,610.385494 L560,618.828427 L563.994265,614.834162 L558.222791,610.216983 L559.539481,604.291881 C571.893868,606.361801 579.246932,606.777284 581.691411,605.876686 C582.29955,605.652635 582.752365,605.361148 583.082466,605.051046 C583.615158,604.550627 583.898366,603.968864 583.988392,603.333487 C584.101077,602.538186 583.909002,601.489604 582.86274,600.268965 C582.039082,599.308031 580.53555,598.102581 578.322712,596.683262 C579.726362,596.070839 581.756044,595.50397 584.403328,594.958909 C584.851856,594.86656 585.219022,595.885782 585.617819,596.256303 C587.474229,597.981085 589.516739,599.318632 591.374375,598.964648 C592.15864,598.815202 592.753848,598.409932 593.215311,597.771266 C593.511031,597.361988 593.74315,596.803567 593.961569,596.169779 C594.104794,595.75418 594.141636,595.104902 594.762283,594.849033 C595.031542,594.738029 595.394038,595.377 595.715195,595.539456 C597.787251,596.5876 600.481266,597.788288 603.54283,596.924925 C605.125131,596.478715 607.768711,594.455415 611.357992,590.581909 L618.426368,595 L624.908098,595 L632.912626,607.451489 Z" id="Rectangle"></path>
        </g>
    </g>
</svg>