<?xml version="1.0" encoding="UTF-8"?>
<svg width="1600px" height="1600px" viewBox="0 0 1600 1600" version="1.1" xmlns="http://www.w3.org/2000/svg" xmlns:xlink="http://www.w3.org/1999/xlink">
    <!-- Generator: Sketch 62 (91390) - https://sketch.com -->
    <title>Brimbank</title>
    <desc>Created with Sketch.</desc>
    <g id="Brimbank" stroke="none" stroke-width="1" fill="none" fill-rule="evenodd" opacity="0.690589097">
        <path d="M422.23704,584.055557 C420.93444,586.487076 418.898488,594.031991 416.222095,606.734362 L409.980364,610.479401 L423.71671,627.15925 L404,635.045934 L404,629.122957 L341.248225,625.138717 L354.245782,521.15826 C345.406635,520.545801 339.967245,519.812547 338.24939,518.438262 C337.839003,518.109953 337.660257,517.629837 337.620261,517.049896 C337.552608,516.068928 337.830381,514.875802 338.368975,513.461991 C339.718561,509.91933 342.686508,505.240593 347.217696,499.398253 L339.016411,472.971891 L351.437137,476.625046 C352.330021,479.081638 353.543351,481.047948 355.04204,482.546636 C356.825456,484.330052 359.018641,485.475848 361.631423,485.965744 C364.834152,486.566256 369.543219,485.216872 374.056959,483.803663 C376.817705,482.939301 379.487595,482.078398 381.559314,481.917727 C382.273879,481.86231 383.036452,481.71527 383.4,482.2 C383.646844,482.529125 382.315326,485.663627 381.063806,490.498847 C380.86818,491.254645 380.694423,491.975056 380.540059,492.653127 C381.235732,492.751775 381.951738,492.859262 382.688075,492.975526 C388.812008,493.942463 393.410989,495.05363 396.473886,496.343271 C397.781726,496.89394 398.78107,497.455487 399.437011,498.076905 C399.744709,498.368409 400,498.651515 400,499 C400,501.777778 398.150999,504.1623 394.8906,506.335899 C393.885456,507.005995 392.9134,507.544558 391.975331,507.937888 C392.911691,508.486151 393.910245,509.078528 394.971008,509.714986 C398.270715,511.69481 400.910771,513.344215 402.8906,514.664101 C403.003304,514.739237 403.209212,514.910408 403.50398,515.146375 C405.893108,517.058908 412.686393,522.439907 420.62279,523.964106 C422.744964,524.371673 424.314967,523.632265 426.317906,522.437056 C428.111725,521.366635 430.435706,519.97021 434.986928,519.999957 C437.59268,520.016989 443.534889,521.264683 452.816567,523.689935 L437.663296,532.462881 L419,556.310426 L419,576.589234 C421.25971,577.036275 423.038582,577.626416 423.474552,579.079648 C423.863987,580.377764 423.31798,582.037803 422.23704,584.055557 Z" id="Rectangle" stroke="#979797" stroke-width="4" fill="#D8D8D8"></path>
    </g>
</svg>