<?xml version="1.0" encoding="UTF-8"?>
<svg width="333px" height="486px" viewBox="0 0 333 486" version="1.1" xmlns="http://www.w3.org/2000/svg" xmlns:xlink="http://www.w3.org/1999/xlink">
    <!-- Generator: Sketch 62 (91390) - https://sketch.com -->
    <title>Rectangle</title>
    <desc>Created with Sketch.</desc>
    <g id="Page-1" stroke="none" stroke-width="1" fill="none" fill-rule="evenodd" opacity="0.648616297">
        <g id="Artboard-Copy-6" transform="translate(-847.000000, -675.000000)" fill="#D8D8D8" stroke="#979797" stroke-width="4">
            <path d="M1174.07695,929.549442 C1174.59725,931.370476 1171.0831,956.323447 1167.26351,963.007722 C1165.30776,966.430295 1161.14349,968.122929 1157.13118,969.920158 C1152.98674,971.776572 1148.92273,973.692715 1146.44777,976.738815 C1143.56444,980.287535 1143.55123,982.483884 1143.56429,985.300905 C1143.57468,987.539829 1143.57831,990.272459 1141.20387,995.120265 C1138.71951,1000.19251 1134.30495,1005.3993 1130.41745,1010.0164 C1126.04468,1015.20984 1122.45342,1019.77049 1122.02128,1022.70901 C1121.81094,1024.13934 1122.11677,1025.44119 1122.93207,1026.61614 C1123.60626,1027.58773 1124.6752,1028.49145 1126.20588,1029.25678 C1128.38181,1030.34475 1131.61281,1031.19916 1135.91761,1031.76722 L1133.90703,1076 L1151.85205,1076 L1149.12855,1114.12895 C1134.2843,1115.17519 1123.62259,1115.47229 1117.14383,1115.00518 C1104.26502,1114.07663 1093.59689,1112.00788 1086.18172,1110.57171 C1081.4252,1109.65047 1077.94671,1109 1076,1109 C1068.10557,1109 1059.45678,1110.85846 1050.05969,1114.61257 L1048.11442,1158.38123 L1037.30871,1155.29389 L1025.50605,1135.62278 L993.507422,1112.30595 L989.3471,1134 L978.320733,1134 C979.335769,1126.25714 978.441063,1121.61264 976.414214,1119.58579 C976.170997,1119.34257 975.081399,1118.54594 973.514423,1117.44225 C969.348383,1114.50793 961.225735,1108.97933 959.788854,1106.10557 C959.697499,1105.92286 959.703197,1104.45137 959.52265,1102.29009 C958.709454,1092.55554 956.620828,1070.96013 951.807974,1065.02858 C951.858391,1064.81086 951.9437,1064.5746 952.017239,1064.33301 C952.276233,1063.48215 952.49375,1062.60535 952.46629,1061.87851 C952.426783,1060.83275 952.017386,1059.98295 951.162179,1059.37232 C950.297728,1058.75509 949.095901,1058.69481 947.545256,1059.05722 C947.037051,1059.176 946.426485,1059.45671 945.840865,1059.18535 C944.484975,1058.55706 942.34535,1058.09101 939.571592,1057.52573 C936.175185,1056.83355 931.749138,1055.93559 926.674663,1054.11723 C925.134957,1053.5655 923.64639,1049.3853 921.419731,1043 L897.293171,1043 L888.410094,1023.25983 L866.423057,1018.48004 L879.240311,965.239137 C868.830892,956.868585 863,950.868546 863,947 C863,945.969837 863.253372,945.252388 863.805717,944.793928 C864.850573,943.926672 866.460357,943.730943 868.034822,943.433965 C871.327653,942.812866 874.431014,941.928265 875.930521,939.213998 C876.984265,937.30661 877.364726,934.352049 875.918731,929.435667 C874.671185,925.19401 873.465796,922.757342 872.355908,921.324789 C870.423247,918.830267 868.63122,918.729272 866.83149,918.686006 C866.218245,918.671264 865.562069,918.755615 864.913334,918.117872 C864.235524,917.451547 863.5951,916.274559 862.878508,914.313554 C862.229195,912.536665 862.065599,909.575665 861.820283,906.065867 C861.514273,901.687704 861.144068,896.512011 859.944385,891.531633 C859.096236,888.01062 856.893516,884.037802 854.616418,880.001348 C851.905029,875.195054 849,870.288904 849,866 C849,864.850663 852.173259,859.999873 855.479384,854.463958 C860.874261,845.430546 866.557101,834.982191 865.940285,832.514929 C865.77554,831.855947 865.028445,830.92602 863.566392,829.818247 C861.74586,828.438861 858.666552,826.219853 857.977148,821.698528 C857.812046,820.615736 858.182187,819.446477 858.578195,817.884987 C859.073531,815.931839 859.689327,813.488115 859.991687,810.182158 C860.064392,809.387216 859.760329,808.482345 859.116745,807.326758 C858.294887,805.851071 857.071827,803.504464 858.872658,798.702247 C859.791175,796.252869 860.690633,795.803314 861.703762,795.407207 C863.854242,794.566424 866.384865,793.977878 868.931232,784.519947 C869.723066,781.578847 868.843558,777.509078 867.719521,772.977685 C866.711126,768.91249 865.557193,764.434701 865.989636,760.20334 C866.549871,754.721579 868.122593,746.614274 873.017459,743.721853 C873.543634,743.410931 874.036133,743.372196 874.51386,743.514588 C875.622992,743.845178 876.64268,744.760174 877.703641,745.626313 C879.353859,746.973504 881.059992,748.263113 882.881005,748.699113 C884.494409,749.085405 886.220718,748.923222 888.1094,747.664101 C888.646518,747.306022 889.511048,746.261958 890.640018,744.713766 C892.542573,742.104731 895.585497,737.896738 900.162476,734.627467 C900.538265,734.359047 901.221792,734.556342 902.024579,734.551837 C904.312853,734.538996 907.56235,734.506079 911.733921,732.860473 C912.89211,732.403589 914.057791,731.203355 915.325546,729.689964 C916.42913,728.372553 917.680823,726.770306 919.510283,725.955199 C920.044007,726.207289 920.616483,726.699063 921.251214,727.208357 C923.673705,729.152113 926.542602,730.986339 929.664625,729.886339 C931.367182,729.286467 932.337513,727.965288 933.397253,726.115481 C934.332702,724.482626 935.499106,722.390152 938.852863,720.80904 C940.349511,720.103453 942.585144,720.276376 945.377929,720.352942 C950.374407,720.489923 956.962569,720.646427 964.674694,717.882761 C970.2652,715.879384 980.547145,707.284833 982.664101,704.1094 C983.722603,702.521647 983.08041,696.474918 981.922625,689.960648 C981.139282,685.553176 979.896523,680.723066 980.150799,678.398261 C980.516107,678.947411 980.906629,679.635944 981.353212,680.377001 C983.396248,683.767208 986.176108,688.108553 990.212161,689.83829 C993.765289,691.361059 996.354429,691.688544 998.439415,691.945828 C1000.08831,692.149298 1001.35926,692.187688 1002.58579,693.414214 C1003.74583,694.574258 1005.7993,698.608081 1008.07569,702.928929 C1010.14065,706.848461 1012.34309,711.020141 1014.17624,713.824129 C1016.16152,716.860807 1017.97845,718 1019,718 C1019.23403,718 1020.18892,717.724157 1021.61597,717.033036 C1024.31933,715.723801 1029.77047,713 1034,713 C1035.36511,713 1046.25684,717.886484 1050.97101,720.714986 C1051.43171,720.991406 1052.72929,721.218316 1054.53505,721.286453 C1056.92294,721.376556 1060.87821,721.170952 1062.4,723.2 C1062.57549,723.433991 1062.47088,723.757597 1062.41958,724.060806 C1062.22657,725.201554 1061.62022,726.507422 1061.05552,727.78378 C1060.0358,730.088585 1059.25832,732.302639 1059.51676,733.787006 C1059.69781,734.8269 1060.21889,735.670411 1061.18274,736.267254 C1061.8038,736.651833 1062.67747,736.946119 1063.91592,736.998232 C1064.67307,737.030092 1065.8268,737.510068 1067.19748,738.01213 C1070.5307,739.23305 1074.81073,740.677462 1078.39223,739.961161 C1078.96026,739.847556 1081.60327,737.404161 1084.55956,734.072161 C1087.49417,730.764609 1090.96357,726 1092,726 C1092.27582,726 1092.16763,726.635424 1092.23316,726.742435 C1093.27234,728.439408 1094.55763,730 1097,730 C1097.35096,730 1098.30235,729.917032 1099.35129,728.425192 C1099.70148,727.927147 1100.11334,727.239378 1100.50914,726.447789 C1101.11776,725.230539 1101.68613,723.767413 1101.96116,722.392232 C1102.2651,720.872551 1102.1036,718.879994 1101.91717,717.019968 C1101.84403,716.290139 1101.71104,715.570486 1101.66942,714.973498 C1101.95103,714.943213 1102.2678,714.864801 1102.62938,714.732236 C1103.40417,714.448178 1104.54247,713.843146 1106.2,712.6 C1108.77914,710.665642 1110.44986,708.622989 1111.90598,706.824766 C1113.3344,705.060747 1114.44052,703.483657 1116.5135,702.932955 C1117.74321,702.606274 1118.20332,703.147539 1118.84721,703.704612 C1120.32579,704.983827 1122.20576,706.622851 1126.84051,706.993631 C1130.96843,707.323864 1133.97,706.278993 1136.4776,705.378164 C1138.16904,704.770533 1139.57674,704.024438 1141.10557,704.788854 C1141.43377,704.952953 1140.88046,706.076623 1140.92237,706.558102 C1141.24279,710.239757 1141.82576,715.855822 1146.61661,720.44438 C1150.98515,724.628459 1156.11144,726.557281 1161.99885,726.219408 C1161.96638,746.710427 1161.32538,760.175082 1160.03884,766.607768 C1159.04602,771.571842 1156.07121,774.431986 1153.78608,776.70178 C1152.41028,778.068342 1151.24874,779.276001 1150.59403,780.480557 C1149.88929,781.777175 1149.66853,783.090905 1150.07407,784.53926 C1150.49348,786.037146 1151.37094,786.966904 1152.61038,787.578067 C1153.72058,788.125509 1155.23012,788.359393 1157.0074,788.572212 C1160.0117,788.931959 1164.00469,789.328261 1167.49485,793.317009 C1169.58146,795.70171 1170.07462,798.668832 1170.69717,801.8201 C1171.06812,803.697775 1171.45737,805.645766 1172.0978,807.617762 C1172.68109,809.413832 1173.47643,811.229896 1174.30728,813.117495 C1175.98519,816.929512 1177.84704,821.059422 1178.00095,826.061509 C1178.24138,833.875451 1176.14583,837.745041 1173.9637,841.819387 C1171.88631,845.698177 1169.73992,849.744257 1169.01062,856.794202 C1168.72896,859.516856 1169.28713,862.72791 1169.9219,866.162293 C1170.39276,868.70982 1170.89535,871.391884 1171.00156,874.078991 C1171.17441,878.452155 1171.09242,885.597881 1170.75932,895.516621 C1167.83763,899.464265 1165.74135,902.197393 1164.46816,903.71413 C1164.16586,904.07425 1163.87101,904.424469 1163.58407,904.765281 C1159.07057,910.126265 1156.74132,913.499114 1157.00982,916.197996 C1157.17648,917.873111 1158.0979,919.29352 1159.66277,920.496357 C1161.20765,921.68383 1163.44197,922.663321 1165.78835,923.659611 C1169.1701,925.095532 1173.18372,926.423123 1174.07695,929.549442 Z" id="Rectangle"></path>
        </g>
    </g>
</svg>