<?xml version="1.0" encoding="UTF-8"?>
<svg width="177px" height="307px" viewBox="0 0 177 307" version="1.1" xmlns="http://www.w3.org/2000/svg" xmlns:xlink="http://www.w3.org/1999/xlink">
    <!-- Generator: Sketch 62 (91390) - https://sketch.com -->
    <title>Rectangle</title>
    <desc>Created with Sketch.</desc>
    <g id="Page-1" stroke="none" stroke-width="1" fill="none" fill-rule="evenodd" opacity="0.66456227">
        <g id="Artboard-Copy-6" transform="translate(-721.000000, -757.000000)" fill="#D8D8D8" stroke="#979797" stroke-width="4">
            <path d="M858.042471,794.356696 C857.95326,794.538658 857.868895,794.728658 857.789607,794.926878 C857.042511,796.794618 856.740402,799.525233 857.005333,803.145951 C857.165824,805.339334 857.534645,805.73772 857.977572,806.377137 C858.250004,806.770424 858.576879,807.328056 859.048175,809.436324 C859.172927,809.994383 858.689798,811.109272 858.3096,812.441111 C857.442501,815.478575 856.431841,819.348676 857.038626,822.39117 C857.431152,824.359338 858.772781,825.976914 860.375324,827.702376 C862.019737,829.47292 864,831.439723 864,835 C864,837.671069 860.770443,841.450705 857.541574,845.646656 C856.492765,847.009596 855.41685,848.408095 854.385152,849.820057 C850.196581,855.552454 847,861.561076 847,866 C847,866.868039 847.823961,868.661016 849.414831,871.360908 C851.962955,875.68537 856.280273,882.996305 859.066717,893.512267 C859.464524,895.01358 859.586018,897.88629 859.749746,901.08251 C859.97003,905.3828 860.236038,910.226384 861.060981,913.490109 C861.562623,915.474756 863.560116,917.17345 866.124446,918.967743 C868.420656,920.574429 871.227062,922.348262 872.066911,925.512998 C872.245798,926.187082 872.658871,927.117099 873.170688,928.222429 C874.520265,931.136999 877.04171,935.831883 874.335899,939.8906 C872.580774,942.523288 869.608166,942.557734 867.461376,942.734213 C865.735045,942.876127 864.329896,943.112107 863.489849,943.638698 C862.815114,944.061662 862.357436,944.630822 862.114063,945.36552 C861.935908,945.90334 861.868681,946.567287 862.041217,947.403942 C862.668652,950.446482 866.850171,956.862204 874.869541,966.564151 L865.699424,1018.52814 L888.49316,1023.70854 L895.870687,1043.99674 C893.71894,1049.80002 891.778861,1053.49373 889.514929,1054.05971 C888.977517,1054.19407 881.829038,1054.75856 870.462922,1052.05431 C868.329927,1051.54683 865.124077,1050.08826 860.829763,1047.72702 C860.460345,1045.41949 860.031241,1043.64119 859.560835,1042.38678 C859.217236,1041.47051 858.832146,1040.78667 858.446692,1040.30969 C857.737656,1039.4323 856.948393,1039.08101 856.188932,1039.00894 C855.24531,1038.9194 853.774203,1039.36696 851.906877,1041.2787 C850.859336,1042.35116 849.599634,1043.90934 848.135663,1045.96009 L844.889897,1045.6521 C842.625661,1043.11215 840.291207,1042 838,1042 L831.446477,1042 C829.762597,1048.79735 827.837353,1053.84976 825.599385,1057.12063 C823.926006,1059.56634 822.117435,1061 820,1061 C816.131991,1061 814.155547,1061.14521 813.009599,1061.22908 C812.390826,1061.27436 812.240987,1061.38443 811.894427,1061.21115 C811.644691,1060.32288 811.742017,1059.48795 811.961161,1058.39223 C812.13636,1057.51624 813.073412,1057.24169 813.568339,1056.96894 C814.741935,1056.32218 815.254581,1055.63362 815.405706,1055.1702 C815.493794,1054.90007 815.527757,1054.49576 815.428469,1053.96493 C814.876301,1052.73243 814.467,1052.49743 813.894427,1052.21115 C813.563237,1052.04555 809.173658,1051.84737 800.555064,1051.97405 L800.253718,1050.76866 C802.881311,1048.66035 804.653486,1046.96202 805.6,1045.7 C806.469231,1044.54103 806.75,1043.57738 806.75,1042.875 C806.75,1042.15054 806.512268,1041.5453 806.081013,1041.04217 C805.75577,1040.66272 805.292697,1040.32271 804.632456,1040.10263 C804.309733,1039.99506 802.384581,1039.89907 798.807349,1039.97892 L795.657349,1036.82892 L790.809454,1037.7985 C789.682886,1036.41127 788.737485,1035.42615 787.988457,1034.82693 C787.257393,1034.24208 786.617496,1033.95184 786.115521,1033.83965 C785.880129,1033.78704 785.600625,1033.75695 785.275954,1033.76239 C784.967213,1033.87415 784.697049,1034.02391 784.460278,1034.20594 C782.963653,1035.35659 782.370606,1038.12811 783.739521,1044.15682 L778.35907,1048 L756.104973,1048 L737.791954,1046.07231 L723.921602,1034.97603 L723.013021,1024.07307 C741.01972,909.361232 750,850.336809 750,847 C750,843.549431 751.486434,835.370496 754.393987,822.460156 L735.95595,818.578464 C739.329723,811.530787 741,804.668815 741,798 C741,797.078426 741.020902,796.016466 741.043666,794.851095 C741.143997,789.714705 741.264435,782.646899 739.95501,776.578175 C739.48314,774.391222 738.272729,771.779949 736.263759,768.766979 L740.243798,759.214884 L776.673672,764.81948 L786.685123,784.842383 L858.042471,794.356696 Z" id="Rectangle"></path>
        </g>
    </g>
</svg>