<?xml version="1.0" encoding="UTF-8"?>
<svg width="83px" height="97px" viewBox="0 0 83 97" version="1.1" xmlns="http://www.w3.org/2000/svg" xmlns:xlink="http://www.w3.org/1999/xlink">
    <!-- Generator: Sketch 62 (91390) - https://sketch.com -->
    <title>Rectangle</title>
    <desc>Created with Sketch.</desc>
    <g id="Page-1" stroke="none" stroke-width="1" fill="none" fill-rule="evenodd" opacity="0.612883444">
        <g id="Artboard-Copy-6" transform="translate(-525.000000, -505.000000)" fill="#D8D8D8" stroke="#979797" stroke-width="4">
            <path d="M572.015444,559.751931 C571.769246,561.72152 571.201373,563.460957 570.29021,564.962398 C568.810912,572.240265 568.491728,577.452307 569.018758,581.273275 C569.149651,582.222254 569.598824,582.935754 570.289698,583.500746 C570.827837,583.940833 571.571708,584.274455 572.38784,584.591487 C572.979647,584.821378 573.837815,584.924183 574.125562,585.697484 C574.557504,586.858295 574.516692,589.370416 574.167048,593.191354 L548.196856,596.07693 C545.502963,598.282687 543.312682,599.662709 541.632456,599.102633 C540.081986,598.58581 537.670722,595.750298 535.037199,589.918926 C532.91737,585.225021 530.765861,578.631267 528.961161,569.607768 C527.663227,563.118098 529.046028,552.413467 532.935235,537.504844 C533.133208,536.745945 533.331527,535.999724 533.529343,535.268769 C532.884011,535.273721 532.167786,535.190427 531.383703,535.037152 C529.782904,534.724223 528.553977,534.247584 527.779371,533.472978 C527.171514,532.865121 526.943028,532.065042 526.996817,531.112792 C527.605858,530.362812 528.491789,529.375935 528.985898,525.237083 C529.111674,524.183532 528.616042,523.205157 527.361407,522.248609 C527.035254,521.770132 527.539554,521.233314 527.998361,520.533857 C529.050891,518.929266 530.348246,516.893961 530.942198,514.477352 C531.299437,513.023859 531.052472,510.684062 530.017347,507.443993 L589,515.738429 L589,524.383844 L606,521.383844 L606,526.681208 L599,529.681208 L599,535 L594,535 L594,539.750913 L576.301086,537.668687 C577.292358,541.121573 577.925334,543.677196 577.211146,545.105573 C576.685851,546.156162 575.228013,547.127551 573.090634,548.218693 C572.679048,548.42881 572.285838,548.621122 571.911078,548.79393 C571.94362,549.226671 571.974637,549.671649 572.004155,550.128857 C572.277241,554.358617 572.28859,557.566763 572.015444,559.751931 Z" id="Rectangle"></path>
        </g>
    </g>
</svg>