<?xml version="1.0" encoding="UTF-8"?>
<svg width="140px" height="94px" viewBox="0 0 140 94" version="1.1" xmlns="http://www.w3.org/2000/svg" xmlns:xlink="http://www.w3.org/1999/xlink">
    <!-- Generator: Sketch 62 (91390) - https://sketch.com -->
    <title>Rectangle</title>
    <desc>Created with Sketch.</desc>
    <g id="Page-1" stroke="none" stroke-width="1" fill="none" fill-rule="evenodd" opacity="0.601892808">
        <g id="Artboard-Copy-6" transform="translate(-337.000000, -626.000000)" fill="#D8D8D8" stroke="#979797" stroke-width="4">
            <path d="M392.606157,694.378725 L380.739361,716.134517 L366.785421,717.776157 C365.724148,709.348746 362.314653,703.921259 356.894427,701.211146 C354.380995,699.95443 352.869336,699.921593 351.880675,700.218143 C350.397936,700.662891 349.576557,701.949124 348.953142,703.944733 C348.704482,704.740716 348.51175,705.723738 347.684637,706.35286 C347.109769,706.790119 346.248447,707 345,707 C343.949835,707 343.046513,706.783035 342.31212,706.283647 C341.566406,705.776561 341.014019,704.995538 340.599356,703.9885 C339.570627,701.490159 339.388404,697.789949 339.909281,692.919146 L352.066999,680.761428 C351.649016,676.002923 351.900701,672.122452 352.897367,669.132456 C353.721108,666.66123 355.060581,664.840313 356.992278,663.736486 C360.082224,661.970803 364.057434,660.6743 368.252429,659.287654 C373.566221,657.531192 379.215304,655.645104 384.039894,652.708397 C389.82095,649.189493 395.849754,644.199972 402.117734,637.724527 C418.005338,632.04999 427.3423,628.697929 429.671092,628.714705 C429.669449,629.040141 429.61578,629.43287 429.53226,629.892229 C429.215282,631.635609 428.410538,634.088491 427.143047,637.257219 C426.785946,638.149971 426.441434,638.976244 426.109823,639.735431 C426.978437,639.819963 427.88067,639.905352 428.81653,639.991567 C438.447885,640.878842 444.561709,641.201453 447.15949,640.993631 C449.885375,640.77556 452.405235,639.786366 454.708713,638 L464,638 L464,664.059844 C462.316309,664.168853 461.195897,664.415984 460.605573,664.711146 C460.391341,664.818262 460.140282,664.985023 459.854881,665.215593 C459.767052,665.409819 459.683038,665.626332 459.602633,665.867544 C458.860049,668.095297 459.627887,668.822292 460.894823,669.666908 C463.372228,671.309453 469.55287,675.348156 472.589481,679.847286 C473.373499,681.008911 473.949584,682.194013 474.057032,683.374667 C474.134018,684.220606 473.934499,685.050771 473.372533,685.837524 C472.080499,687.646372 470.720568,688.535594 469.047981,688.749621 C466.54417,689.070012 463.54569,688.17059 459.648959,687.103041 C457.24201,686.443632 454.522538,685.699525 451.413092,685.043126 C449.882711,684.720066 447.693727,684.65982 444.841462,684.908524 L438.61756,677.647305 L392.606157,694.378725 Z" id="Rectangle"></path>
        </g>
    </g>
</svg>