<?xml version="1.0" encoding="UTF-8"?>
<svg width="1600px" height="1600px" viewBox="0 0 1600 1600" version="1.1" xmlns="http://www.w3.org/2000/svg" xmlns:xlink="http://www.w3.org/1999/xlink">
    <!-- Generator: Sketch 62 (91390) - https://sketch.com -->
    <title>Hume</title>
    <desc>Created with Sketch.</desc>
    <g id="Hume" stroke="none" stroke-width="1" fill="none" fill-rule="evenodd" opacity="0.797860179">
        <path d="M433.689761,518.024209 C429.564441,518.671967 428.300425,520.477385 427.233182,521.985975 C426.916309,522.433888 426.718222,522.969285 425.919099,523.001637 C417.828571,523.329173 411.9821,519.187353 407.44874,516.065692 C404.164672,513.80429 401.42489,512.111678 399.093825,512.002202 C396.754676,511.892346 395.603897,510.632449 394.560643,509.600839 C393.937783,508.984931 393.331775,508.430584 392.688234,507.991302 C393.440632,507.414962 394.355916,506.776506 395.271017,506.127801 C396.864021,504.998538 398.467448,503.85218 399.459211,502.939473 C399.988899,502.452007 400.374155,501.997446 400.602817,501.62249 C401.278549,500.514436 401.096067,499.672877 400.760116,499.050267 C398.338111,494.561628 388.964804,492.325685 383.629779,491.283676 C383.181344,491.19609 382.768212,491.115425 382.399266,491.040259 C382.302457,490.062945 382.997633,488.803724 383.553983,487.597684 C384.289553,486.003138 384.915868,484.468248 384.975285,483.389192 C385.025052,482.485375 384.784911,481.761772 384.355938,481.200849 C383.94943,480.669302 383.343685,480.21872 382.371759,480.034855 C379.131277,479.421832 374.908952,481.051477 370.891305,482.771271 C368.332734,483.866494 365.888689,485 364,485 C362.144343,485 360.456268,484.266862 358.910197,482.871982 C356.957526,481.110265 355.246847,478.362142 353.706845,474.683916 L337.459429,471.263407 L331.779622,457.06389 C305.013195,416.910382 285.610342,389.145863 273.57501,373.767383 C261.830283,358.760233 252.316702,346.94107 245.035848,338.308822 C245.628054,326.199492 246.26643,318.214975 246.96774,314.357771 C247.460775,311.646077 249.087814,309.50968 251.748524,307.882992 C254.75119,307.259805 258.368757,307.625562 262.066327,307.958684 C266.284341,308.338695 270.599242,308.69707 274.380916,307.963391 C278.043868,307.252744 282.308945,304.506563 286.952236,301.417832 C292.25986,297.887185 298.127527,293.897806 304.294975,292.978128 C306.361638,292.669951 306.881746,292.205009 307.09,292.384462 C307.567547,292.795965 307.929314,293.901422 319.161144,292.993498 C322.764488,292.702221 327.259755,295.933463 332.687329,299.491298 C341.901799,305.531486 353.457295,312.955237 367.14,311.995094 C372.084755,311.648111 380.848291,313.828338 391.341354,316.368803 C404.209918,319.484397 419.596001,323.197923 433.888372,323.996882 C434.927639,324.054979 435.716484,323.821359 436.333748,323.450008 C437.06876,323.007818 437.605811,322.343594 437.938042,321.462095 C438.436304,320.140068 438.359288,318.110267 438.178668,316.026828 C438.050665,314.550336 437.788153,313.011924 438.22464,312.050246 C438.370148,311.939561 438.56151,311.964474 438.787005,311.988626 C454.146864,313.633766 482.800424,318.507019 524.74619,326.602648 C523.924781,332.056146 523.068122,335.94453 522.143047,338.257219 C521.031926,341.035021 515.898185,345.54278 511.762726,349.310217 C508.346685,352.422259 505.589951,355.139958 505.143047,356.257219 C504.648682,357.49313 504.833187,358.684409 505.771501,359.894592 C506.411171,360.7196 507.538997,361.584794 508.875841,362.551529 C511.332777,364.328256 514.857817,366.610641 515.001033,371.064281 C515.127565,374.999061 513.322868,380.418683 511.289082,386.751276 C508.25734,396.191197 504.653144,407.531969 505.000909,419.060305 C505.021031,419.727348 505.035772,420.458632 505.051628,421.243271 C505.184646,427.825323 505.447414,437.982965 509.193919,445.859112 C510.279527,448.141346 512.507638,449.151902 515.254553,450.085928 C517.713102,450.921901 520.658646,451.785725 522.127342,455.702247 C523.437549,459.196134 522.281203,461.531792 521.142116,464.12499 C519.726857,467.346907 518.225114,470.8861 519.021352,476.291465 C519.340626,478.458897 520.570855,481.053046 521.909697,483.765853 C523.412411,486.8107 525.125616,490.039524 525.001851,492.913966 C524.903613,495.195569 523.133646,498.220312 520.001859,502.064042 C490.452334,504.104373 472.328704,505.766962 465.628149,507.034872 C461.200107,507.872767 457.279609,511.454086 454.060066,514.538036 C452.334399,516.191026 450.929705,517.836539 449.700751,518.022514 C445.022563,518.730456 441.831857,518.391511 439.241647,518.121803 C437.170971,517.906192 435.4337,517.750375 433.689761,518.024209 Z" id="Rectangle" stroke="#979797" stroke-width="4" fill="#D8D8D8"></path>
    </g>
</svg>