<?xml version="1.0" encoding="UTF-8"?>
<svg width="102px" height="166px" viewBox="0 0 102 166" version="1.1" xmlns="http://www.w3.org/2000/svg" xmlns:xlink="http://www.w3.org/1999/xlink">
    <!-- Generator: Sketch 62 (91390) - https://sketch.com -->
    <title>Rectangle</title>
    <desc>Created with Sketch.</desc>
    <g id="Page-1" stroke="none" stroke-width="1" fill="none" fill-rule="evenodd" opacity="0.641316492">
        <g id="Artboard-Copy-6" transform="translate(-577.000000, -739.000000)" fill="#D8D8D8" stroke="#979797" stroke-width="4">
            <path d="M668.68563,895.320186 L666.531886,902.858288 L647.810354,901.15633 C645.293534,879.019368 639.23218,860.610473 629.676887,845.910023 C625.833183,839.996632 622.332792,835.94563 619.172424,832.292843 C617.550905,830.418674 616.021661,828.652971 614.586841,826.782652 C613.607661,825.50627 612.658943,824.222186 611.715091,822.944865 C607.476559,817.208839 603.31156,811.628402 597.138253,807.3555 C595.788626,806.421345 593.955141,806.004143 591.574919,806.323443 L596.125741,783.569333 L579,758.38442 L579,752.296976 L614.733077,757.259903 L616.720875,741.357517 L660.890084,749.639243 L659.124874,777 L650.262966,777 L665.968724,800.558637 L664.04201,838.129563 L655.675156,846.496417 L671.462364,888.59564 L676.418205,890.247587 L673.825942,897.376311 L668.68563,895.320186 Z" id="Rectangle"></path>
        </g>
    </g>
</svg>