<?xml version="1.0" encoding="UTF-8"?>
<svg width="128px" height="137px" viewBox="0 0 128 137" version="1.1" xmlns="http://www.w3.org/2000/svg" xmlns:xlink="http://www.w3.org/1999/xlink">
    <!-- Generator: Sketch 62 (91390) - https://sketch.com -->
    <title>Rectangle</title>
    <desc>Created with Sketch.</desc>
    <g id="Page-1" stroke="none" stroke-width="1" fill="none" fill-rule="evenodd" opacity="0.651296099">
        <g id="Artboard-Copy-6" transform="translate(-702.000000, -645.000000)" fill="#D8D8D8" stroke="#979797" stroke-width="4">
            <path d="M791.000916,744.939466 C790.82962,750.596353 788.948024,760.949439 785.38749,776.001343 L779.360758,763.194538 L739.811643,756.781167 L735.477639,766.315975 C724.045206,752.899093 717.140167,743.542227 714.836093,738.207056 C713.120259,734.233973 714.337013,730.856599 715.31732,727.817301 C716.445422,724.319784 717.241981,721.1816 715.808497,718.145987 C710.688475,707.303587 706.758099,700.38821 704.104053,697.323577 C704.984691,690.793578 706.555713,684.953979 708.829373,679.808328 C709.459278,678.382753 710.787663,677.120452 712.238921,675.652639 C714.056293,673.814536 716.087815,671.737857 717.714468,669.029853 C719.045988,666.813179 720.659672,662.761136 722.519001,656.855233 C728.938098,656.189272 733.56833,655.554198 736.410984,654.957318 C740.987001,653.996477 745.007429,652.915175 748.423807,651.99566 C752.101589,651.005788 755.044956,650.198614 757.192715,649.990694 C760.982889,649.623775 765.357978,650.160956 768.882264,650.580405 C771.668894,650.912061 773.979935,651.149979 775.258656,650.983204 C779.025566,650.49191 780.496845,649.300432 781.595217,648.431791 C781.817742,648.255808 781.963532,648.020123 782.248069,647.984556 C785.184171,647.617543 788.574576,649.854217 793.662403,652.808401 C794.711619,653.417616 795.825202,654.064175 797.011504,654.738642 C798.830525,655.772837 801.99275,657.239022 806.502672,659.128587 L804.933822,663.73392 C809.921243,666.029104 813.450405,667.419223 815.510566,667.939189 C820.377908,669.167663 823.933666,670.266471 825.952278,671.81925 C826.556283,672.283869 826.999352,672.77809 827.191073,673.38273 C827.380893,673.981373 827.315404,674.655116 827.084347,675.425304 C826.554527,677.191372 825.388823,678.19929 823.676626,678.734351 C821.128723,679.530571 817.601881,679.430973 813.1904,679.009084 C811.024789,678.801977 808.553902,677.785222 806.152946,676.832016 C803.407587,675.742079 800.740152,674.731328 798.593676,674.588941 C796.32642,674.438542 794.548941,675.127938 793.352562,676.866003 C792.652082,677.883641 792.475476,679.174099 792.948737,680.770153 C793.325391,682.040406 794.163895,683.57065 795.119833,685.258926 C796.797729,688.22225 799.114432,691.847029 798.07807,695.446661 C797.830698,696.305864 797.204821,697.336896 796.538277,698.495007 C795.689336,699.970029 794.758634,701.60515 794.126096,703.301084 C794.032358,703.55241 793.944443,703.807015 793.86172,704.063883 C793.939298,704.314835 794.055287,704.594431 794.224629,704.9209 C794.777099,705.985987 795.248816,706.299514 795.858358,706.650168 C796.714349,707.1426 798.091677,707.735896 799.698282,708.418141 C802.724261,709.703124 806.682345,711.332653 808.971607,713.403873 C809.554004,713.930799 810.029549,714.472167 810.231209,715.079478 C810.350519,715.438786 810.331453,715.816095 810.16171,716.212161 C809.687461,717.318743 808.666514,717.734398 807.526305,717.920553 C805.045835,718.325524 801.895925,717.689634 799.185981,717.185516 C798.906088,717.133449 798.630466,717.08218 798.360144,717.032693 C797.672429,716.906797 797.008691,716.733348 796.369453,716.56794 C793.256063,715.762325 790.740503,715.486101 788.604277,717.567535 C787.794536,718.356506 787.347205,719.494288 787.461835,721.192081 C787.546726,722.449394 787.966861,724.125246 788.519549,726.234884 C789.626195,730.459006 791.252667,736.625646 791.000916,744.939466 Z" id="Rectangle"></path>
        </g>
    </g>
</svg>