<?xml version="1.0" encoding="UTF-8"?>
<svg width="189px" height="114px" viewBox="0 0 189 114" version="1.1" xmlns="http://www.w3.org/2000/svg" xmlns:xlink="http://www.w3.org/1999/xlink">
    <!-- Generator: Sketch 62 (91390) - https://sketch.com -->
    <title>Rectangle</title>
    <desc>Created with Sketch.</desc>
    <g id="Page-1" stroke="none" stroke-width="1" fill="none" fill-rule="evenodd" opacity="0.577100327">
        <g id="Artboard-Copy-6" transform="translate(-600.000000, -512.000000)" fill="#D8D8D8" stroke="#979797" stroke-width="4">
            <path d="M697,618.34854 L656.75289,606.849366 L647.820101,611.812026 L635.278319,607.332818 L626.104664,594.081983 L619.772117,593.57538 L610.638672,587.330071 C607.425632,591.163321 605.235078,593.526572 603.971008,594.285014 C603.611983,594.500429 603.231976,594.563352 602.834345,594.511645 C602.442166,590.891141 602.486826,587.488575 602.976743,584.304114 C603.106358,583.461618 604.470909,582.419576 605.639652,581.239482 C607.525095,579.335728 609.398166,577.272193 609.913072,575.583228 C610.250781,574.475493 610.134817,573.189475 609.264422,571.738816 C608.87101,571.083131 608.301763,570.372494 607.544226,569.616512 C608.81436,568.502204 612.003045,567.054083 616.407604,565.015423 C616.72182,565.234922 617.040006,565.562753 617.377047,565.877927 C618.15013,566.600857 618.964662,567.310984 619.754958,567.695071 C620.784205,568.19529 621.800067,568.260012 622.785303,567.839375 C623.622622,567.48189 624.448761,566.328205 625.084753,564.617385 C625.326197,563.967899 625.431345,563.051273 625.978611,562.744225 C626.509347,562.446451 627.951391,563.983654 629.247163,564.666941 C633.67435,567.001487 639.277292,569.479791 642.846661,567.811951 C643.887979,567.325379 644.629122,566.392831 644.971209,564.915625 C645.225719,563.816596 645.239643,562.331864 645.226053,560.688805 C645.20592,558.254744 644.939308,555.181069 646.594775,553.201989 C646.803322,553.357553 647.03144,553.540926 647.281826,553.733442 C649.638842,555.545699 653.11898,557.966917 657.457704,556.946923 C658.422847,556.720026 659.168555,556.136747 659.714393,555.17043 C660.099203,554.489189 660.372075,553.542582 660.642079,552.475358 C661.041952,550.894814 661.348635,548.690001 663.655642,547.88948 C664.976599,547.431113 667.609668,547.918029 670.870428,548.352131 C675.888399,549.020168 682.245559,549.843108 688.28308,548.979865 C689.858915,548.754553 690.544662,548.160661 690.949845,547.61766 C691.495753,546.886065 691.617288,545.953034 691.432034,544.746344 C691.39562,544.509149 691.286817,544.232194 691.3837,543.948028 C692.50995,542.967851 693.94936,542.449736 696.392232,541.961161 C697.174042,541.804799 697.806476,541.916501 698.342951,542.217698 C699.373604,542.796344 700.113004,543.856976 700.872092,544.844497 C702.610491,547.106032 704.402001,548.939974 706.953385,548.999457 C709.424004,549.057056 712.957609,547.085792 716.346623,544.995151 C718.76431,543.50371 721.1178,541.647588 722.587979,541.9571 C723.304061,542.107854 723.799709,542.341322 724.11219,542.697668 C724.631662,543.290062 724.714208,544.074189 724.862793,544.771688 C725.316376,546.900938 726.003761,548.545811 728.009896,549.28473 C729.237668,549.736955 731.198402,549.837118 734.526235,548.929528 C737.756018,548.048678 739.468718,547.280999 740.393138,546.575433 C742.082234,545.286225 742.167446,544.062162 741.966822,542.220267 C741.846994,541.12015 741.737678,539.635488 743.588716,537.2149 C744.132328,536.504023 745.260673,536.251617 746.396231,535.838924 C748.480505,535.081442 750.77074,534.175048 752.461444,532.36535 C753.977222,530.74289 754.698862,527.620544 755.312185,524.129001 C755.821181,521.231377 756.291001,518.059177 757.845143,515.944007 C758.729353,514.740605 760.038573,514 762,514 C764.462575,514 766.168378,516.738199 768.472892,519.59723 C770.218558,521.762941 772.187187,524.195883 774.641371,526.467695 C776.582097,528.264203 780.346547,530.269833 786,532.394929 L786,539.021832 L777,546.021832 L777,562.05051 C781.072818,564.825 783.892373,567.18983 785.4,569.2 C786.20294,570.270587 786.521304,571.479273 786.40755,572.814807 C780.05536,572.175747 775.718544,572.318967 773.367544,573.102633 C770.861201,573.938081 768.351981,576.111647 765.977789,579.833665 L744,576.693981 L744,603 L726.420283,603 L721.822211,622.311899 L715.529763,616.806006 L707.339363,618.853606 L697,612.391505 L697,618.34854 Z" id="Rectangle"></path>
        </g>
    </g>
</svg>