<?xml version="1.0" encoding="UTF-8"?>
<svg width="69px" height="74px" viewBox="0 0 69 74" version="1.1" xmlns="http://www.w3.org/2000/svg" xmlns:xlink="http://www.w3.org/1999/xlink">
    <!-- Generator: Sketch 62 (91390) - https://sketch.com -->
    <title>Rectangle</title>
    <desc>Created with Sketch.</desc>
    <g id="Page-1" stroke="none" stroke-width="1" fill="none" fill-rule="evenodd" opacity="0.608879538">
        <g id="Artboard-Copy-6" transform="translate(-408.000000, -568.000000)" fill="#D8D8D8" stroke="#979797" stroke-width="4">
            <path d="M463.891505,636 L452.263334,636 C452.542655,637.20102 451.878987,637.750195 450.85461,638.189214 C449.847818,638.620696 448.507638,638.878119 446.846607,639.005891 C443.424808,639.269106 438.014856,639.015401 430.617611,638.264837 C431.592285,635.012939 432.285392,632.491076 432.698782,630.699719 C432.979114,629.48495 433.134907,628.573023 433.181609,627.965893 C433.223296,627.423965 433.182718,627.022336 433.120657,626.753406 C433.066778,626.519931 432.954517,626.203648 432.745676,625.817486 C432.281758,625.508605 431.915035,625.325303 431.642729,625.259341 C430.77356,625.048797 428.501995,625.461003 424.625149,626.692894 L411.067939,611.441033 L417.711866,607.288579 L423.152184,588.247466 C426.092791,590.150328 428.387727,591 430,591 C431.97904,591 433.996494,589.952425 435.858777,587.355165 C437.436171,587.79433 438.73431,588 439.75,588 C440.668161,588 441.412879,587.838467 441.999777,587.577623 C442.835799,587.206058 443.419812,586.632511 443.788854,585.894427 C444.488415,584.495306 444.120779,581.080952 441.738983,575.35538 L448.843019,571.042216 C450.112473,574.714915 451.562698,576.848482 452.951805,577.703317 C454.430994,578.613587 457.25466,578.93882 461.571567,578.280594 L462.948948,583.101429 C461.896534,583.532759 461.090232,583.998243 460.515293,584.473773 C459.846069,585.027287 459.424141,585.625646 459.185362,586.22565 C458.890088,586.967617 458.846186,587.741761 459.076952,588.549442 C459.48632,589.98223 461.816605,592.929762 466.369755,597.273194 C465.540927,598.579588 464.997302,599.802376 464.715084,600.931246 C464.247277,602.802477 464.449654,604.468101 465.235294,605.941176 C466.355916,608.042342 469.350526,610.460852 474.463896,613.003351 L473.680174,615.018637 C472.451113,614.833676 471.404574,614.888113 470.537529,615.13014 C468.934731,615.577543 467.784593,616.607272 467.135991,618.275107 C466.298215,620.429387 466.420429,624.208119 467.843004,629.677601 L463.891505,636 Z" id="Rectangle"></path>
        </g>
    </g>
</svg>