<?xml version="1.0" encoding="UTF-8"?>
<svg width="90px" height="89px" viewBox="0 0 90 89" version="1.1" xmlns="http://www.w3.org/2000/svg" xmlns:xlink="http://www.w3.org/1999/xlink">
    <!-- Generator: Sketch 62 (91390) - https://sketch.com -->
    <title>Rectangle</title>
    <desc>Created with Sketch.</desc>
    <g id="Page-1" stroke="none" stroke-width="1" fill="none" fill-rule="evenodd" opacity="0.621309168">
        <g id="Artboard-Copy-6" transform="translate(-719.000000, -571.000000)" fill="#D8D8D8" stroke="#979797" stroke-width="4">
            <path d="M795.022191,650.977529 C789.256288,647.773197 785.682832,646 784,646 C781.725872,646 779.410837,646.919036 777.261671,647.83135 C775.792871,648.45485 774.431163,649.179579 773.275145,649.019017 C759.19088,647.062811 751.523898,649.16048 746.36396,650.568292 C745.707859,650.747299 745.094517,650.914818 744.514929,651.059715 C737.300508,652.86332 730.086127,654.117751 722.871698,654.822472 L721.017033,624.220494 L726.508603,605 L745,605 L745,578.360921 L768.327043,582.248761 C769.839099,577.734872 771.468312,574.72371 773.711991,573.868975 C775.777373,573.082163 780.058056,573.141672 786.501439,573.844062 C787.056297,575.633994 787.433906,577.355804 787.630563,579.010315 C787.712273,579.69775 787.694336,579.955713 789.072351,581.645805 C789.804398,582.543636 791.095812,584.127749 793.4,587.2 C795.791776,590.389035 796.994898,598.254886 797.68532,602.36661 C797.824285,603.194198 797.940494,603.884386 798.036449,604.38009 C798.355601,606.028834 797.767394,610.143966 797.158633,614.971697 C796.240504,622.252852 795.174146,631.038057 796.0255,636.318353 C796.163401,637.17365 796.574628,637.723633 797.09904,638.102529 C797.545858,638.425361 798.135558,638.639498 798.887875,638.63733 C799.690819,638.635016 800.852929,638.298122 802.073686,637.884186 C802.853809,637.619661 803.670933,637.300914 804.349741,637.238667 C805.457188,640.134157 806.248966,646.715572 806.833434,656.942711 C804.174536,655.82321 802.213457,654.923936 800.952067,654.241146 C798.74425,653.046055 796.771505,651.949689 795.022191,650.977529 Z" id="Rectangle"></path>
        </g>
    </g>
</svg>