<?xml version="1.0" encoding="UTF-8"?>
<svg width="73px" height="81px" viewBox="0 0 73 81" version="1.1" xmlns="http://www.w3.org/2000/svg" xmlns:xlink="http://www.w3.org/1999/xlink">
    <!-- Generator: Sketch 62 (91390) - https://sketch.com -->
    <title>Rectangle</title>
    <desc>Created with Sketch.</desc>
    <g id="Page-1" stroke="none" stroke-width="1" fill="none" fill-rule="evenodd" opacity="0.608130601">
        <g id="Artboard-Copy-6" transform="translate(-465.000000, -588.000000)" fill="#D8D8D8" stroke="#979797" stroke-width="4">
            <path d="M523.477027,643.422467 L502.630874,635.481075 C501.1005,630.531102 499.58463,627.604015 498.317009,626.494847 C497.680383,625.937799 497.0537,625.660971 496.481392,625.558758 C495.69712,625.41869 494.943793,625.5637 494.230283,626.039373 C494.022624,626.177812 493.810285,626.358782 493.598954,626.587889 C492.285225,625.450516 491.061989,625 490,625 C488.908613,625 487.875035,625.405022 486.944271,626.335786 C486.509909,626.770148 486.089823,627.34162 485.700902,628.062456 L468.916967,628.901653 C468.747965,623.793437 468.95419,620.446455 469.760942,618.9482 C470.005367,618.494267 470.377727,618.188281 470.872265,618.023435 C471.882022,617.686849 473.240273,617.830796 474.918587,618.227671 L478.729143,612.511837 L467.817777,604.576298 L474.112406,596.183458 L486.016394,609.918829 L500.337555,611.220752 L497.372322,590.46412 L514.842613,593.640537 L513.845506,604.608709 L523.906862,606.62098 L522.885805,625 L535.770829,625 L531.795602,661.572085 L523.477027,643.422467 Z" id="Rectangle"></path>
        </g>
    </g>
</svg>