<?xml version="1.0" encoding="UTF-8"?>
<svg width="1600px" height="1600px" viewBox="0 0 1600 1600" version="1.1" xmlns="http://www.w3.org/2000/svg" xmlns:xlink="http://www.w3.org/1999/xlink">
    <!-- Generator: Sketch 62 (91390) - https://sketch.com -->
    <title>Melton</title>
    <desc>Created with Sketch.</desc>
    <g id="Melton" stroke="none" stroke-width="1" fill="none" fill-rule="evenodd" opacity="0.665358599">
        <path d="M339.251235,625.671205 C284.842393,616.352281 242.857814,609.469377 213.297537,605.022256 C211.136751,604.697182 208.494288,605.687314 205.486812,608.69479 C203.460014,610.721588 201.205173,613.685284 198.737506,617.598538 C195.614038,614.108106 193.116999,612.362417 191.368938,612.034323 C187.893262,611.381974 184.323879,612.886914 181.612175,614.135367 C180.777328,614.519726 180.040981,615.233824 179.612018,615.095943 C176.456318,614.081611 173.911148,611.756446 171.147486,609.32215 C167.65654,606.247247 163.879653,602.973354 158.671775,601.116196 C151.228773,598.46198 137.101384,596.446298 116.271614,595.135119 L126.645838,518.743102 C131.82015,520.610658 135.979188,521.759145 139.118693,522.207646 C141.136097,522.495846 142.776248,522.497577 144.042004,522.262064 C145.797264,521.93547 146.950124,521.156759 147.652455,520.126674 C149.516755,517.392366 148.279132,509.091785 142.356692,494.475792 C149.076862,487.709014 152.486856,482.606769 152.978352,479.293469 C153.694012,474.469024 152.067714,469.732241 150.364894,465.037104 C148.938624,461.10449 147.433598,457.206366 147.98089,453.27582 C148.373488,450.456251 149.406585,447.752864 150.412062,445.075899 C151.516401,442.135724 152.590311,439.224393 152.982677,436.262662 C153.606332,431.555078 153.632267,424.62861 153.036829,415.480483 C159.630467,404.206732 164.249411,394.240151 166.911558,385.588172 C169.426139,377.415784 176.671411,369.636967 188.415952,362.105915 L270.834308,376.823478 L328.276643,459.025441 C339.313556,481.105609 345,494.090201 345,498 C345,498.142609 344.345438,498.843892 343.764829,499.875496 C341.712415,503.522147 338.254132,509.731761 337.192255,514.005795 C336.712338,515.93745 336.739932,517.542356 337.192233,518.635574 C337.51957,519.426751 338.043596,520.034767 338.765439,520.450641 C339.341871,520.782741 340.071523,521 341,521 C342.726467,521 345.996358,521.534727 350.81157,522.568764 L339.251235,625.671205 Z" id="Rectangle" stroke="#979797" stroke-width="4" fill="#D8D8D8"></path>
    </g>
</svg>