<?xml version="1.0" encoding="UTF-8"?>
<svg width="123px" height="91px" viewBox="0 0 123 91" version="1.1" xmlns="http://www.w3.org/2000/svg" xmlns:xlink="http://www.w3.org/1999/xlink">
    <!-- Generator: Sketch 62 (91390) - https://sketch.com -->
    <title>Rectangle</title>
    <desc>Created with Sketch.</desc>
    <g id="Page-1" stroke="none" stroke-width="1" fill="none" fill-rule="evenodd" opacity="0.630636058">
        <g id="Artboard-Copy-6" transform="translate(-605.000000, -668.000000)" fill="#D8D8D8" stroke="#979797" stroke-width="4">
            <path d="M724.403268,756.476953 L678.811495,750.094104 L662,736.885072 L662,747.607858 L616.241777,739.371378 L618.15272,725.421497 L607.14313,723.365626 L608.74777,704.109953 L618.48497,708.978553 L625.620019,670.245425 L707.342303,681.648535 L701.771948,698.3596 C708.044971,706.708825 711.848821,713.084051 713.071594,717.530332 C713.948726,720.719782 713.418494,724.650676 712.982193,728.301168 C712.48857,732.431266 712.157,736.236667 713.138868,738.732249 C714.857974,743.101643 717.575724,746.731476 720.04069,749.9905 C720.862139,751.076568 721.651844,752.119538 722.3544,753.136661 C722.986083,754.051181 723.668578,755.164895 724.403268,756.476953 Z" id="Rectangle"></path>
        </g>
    </g>
</svg>