<?xml version="1.0" encoding="UTF-8"?>
<svg width="83px" height="89px" viewBox="0 0 83 89" version="1.1" xmlns="http://www.w3.org/2000/svg" xmlns:xlink="http://www.w3.org/1999/xlink">
    <!-- Generator: Sketch 62 (91390) - https://sketch.com -->
    <title>Rectangle</title>
    <desc>Created with Sketch.</desc>
    <g id="Page-1" stroke="none" stroke-width="1" fill="none" fill-rule="evenodd" opacity="0.636916935">
        <g id="Artboard-Copy-6" transform="translate(-417.000000, -522.000000)" fill="#D8D8D8" stroke="#979797" stroke-width="4">
            <path d="M493.020121,589.282983 C493.501166,592.648595 494.909976,598.992754 497.255115,608.314001 L488.008622,606.180195 L473.728581,591.900154 L468.264099,599.706557 L467.892706,597.106804 C463.400446,592.201498 460.693447,588.775654 460.008976,586.73741 C460.918309,586.539962 461.764408,586.268046 462.447023,585.751696 C463.100856,585.257119 463.64504,584.569356 463.929528,583.526235 C464.049387,583.086749 464.175709,582.729345 464.281892,582.426232 C464.87217,580.741189 464.832428,579.893584 464.192684,578.887615 C463.798906,578.268416 462.944182,577.502951 461.073751,576.312677 C460.016794,575.640068 459.241233,575.444101 458.646684,575.409402 C457.640597,575.350686 456.942545,575.704553 456.220825,576.221683 C456.084517,576.319351 455.933671,576.423333 455.594229,576.325131 C454.818877,576.100816 453.752278,575.508106 452.162476,574.372533 C451.250388,573.721041 451.171445,571.021893 450.374941,567.711427 L437.374989,576.211395 C440.121299,578.968187 441.851046,581.196822 442.122485,583.058663 C442.185437,583.490463 442.151013,583.887286 441.975114,584.241322 C441.7666,584.661004 441.39231,585.007763 440.905501,585.326061 C440.171722,585.80584 438.588062,585.495991 436.407696,585.041995 C435.954828,584.947699 435.528045,584.857975 435.131751,584.768803 C434.909509,585.101444 434.66317,585.446737 434.396163,585.805134 C433.045546,587.618031 431.864869,588.828268 430.671202,589.027212 C429.509435,589.22084 427.620665,588.364716 425,586.854026 L425,580 C425,579.073333 424.750415,578.270071 424.289101,577.5781 C423.865077,576.942064 423.247781,576.387823 422.394427,575.961146 C421.55499,575.541427 420.427886,575.238224 419,575.094168 L419,557.75147 L439.246181,534.612977 L459.863879,524.304129 C468.793555,530.216946 474.984494,535.489404 478.380779,540.173935 C480.264245,542.77182 481.755861,546.249261 482.89772,550.584694 C483.134816,551.484907 484.113644,552.535849 485.540429,553.61843 C486.475614,554.328007 487.830636,555.073206 488.024046,556.309199 C488.079241,556.661927 487.398102,556.922 487.138073,557.237392 C485.60286,559.099468 484.303314,561.234497 485.102633,563.632456 C485.241479,564.048992 485.764188,564.74917 486.899829,565.590087 C488.323267,566.644112 490.991595,568.558924 492.070088,572.524823 C492.436062,573.870605 492.37949,575.369056 492.34943,577.359147 C492.306585,580.195696 492.252758,583.914156 493.020121,589.282983 Z" id="Rectangle"></path>
        </g>
    </g>
</svg>