<?xml version="1.0" encoding="UTF-8"?>
<svg width="91px" height="94px" viewBox="0 0 91 94" version="1.1" xmlns="http://www.w3.org/2000/svg" xmlns:xlink="http://www.w3.org/1999/xlink">
    <!-- Generator: Sketch 62 (91390) - https://sketch.com -->
    <title>Rectangle</title>
    <desc>Created with Sketch.</desc>
    <g id="Page-1" stroke="none" stroke-width="1" fill="none" fill-rule="evenodd" opacity="0.584352022">
        <g id="Artboard-Copy-6" transform="translate(-445.000000, -503.000000)" fill="#D8D8D8" stroke="#979797" stroke-width="4">
            <path d="M516.323679,593.026366 C512.636672,592.421691 505.56201,590.891166 495.099645,588.437731 C495.645082,578.683469 495.011852,572.912226 493.664101,570.8906 C493.443717,570.560024 492.980165,570.094894 492.191501,569.398888 C491.156272,568.485286 489.433052,566.964145 486.962109,564.198328 C487.1361,563.656307 487.441326,562.993967 487.754844,562.289491 C488.355937,560.938834 488.986177,559.469244 489.223883,558.255352 C489.527845,556.703106 489.216651,555.498376 488.506953,554.68505 C487.857489,553.940755 487.266479,553.570794 486.519058,553.138948 C485.980014,552.827499 485.324185,552.450362 484.378311,551.550773 C483.837578,551.0365 483.717246,549.670316 483.365674,548.186053 C482.527401,544.647044 481.346398,540.218969 478.337366,537.512904 C475.447603,534.914101 464.148651,525.362067 461.1094,523.335899 C459.918879,522.542219 458.255186,522.435067 456.216421,522.525339 C454.857537,522.585508 453.283025,522.696167 451.677367,522.118199 C450.909983,521.841974 449.910011,521.071898 448.648994,519.865283 C450.711059,519.083977 452.21882,518.323703 453.187087,517.609604 C454.146392,516.902114 455.038538,516.115279 455.952344,515.305624 C458.275185,513.247526 460.754447,510.999087 465.43658,509.951768 C475.873835,507.617119 493.660345,505.978464 518.791696,505.009477 L529,507.561553 L529,515.068718 C526.839644,516.959177 525.580787,518.770506 525.084347,520.425304 C524.484337,522.42534 524.97368,523.485532 525.581069,524.651195 C525.76564,525.005412 526,525.378603 526,526 C526,526.636157 525.834649,527.291679 525.687064,527.948459 C525.180944,530.200791 524.957674,532.346082 526.421296,534.227881 C527.623588,535.773686 529.327333,535.909408 531.207778,535.677454 C531.491095,535.642506 531.790253,535.527037 532.048343,535.559657 C532.175786,535.851912 531.569673,536.518145 531.247014,537.40523 C529.553328,542.061666 526.21526,551.295486 527.00443,563.133038 C527.597398,572.027558 529.479115,580.150458 532.636474,587.504731 C529.480311,587.257689 527.581167,587.724844 526.698417,588.481487 C526.496252,588.654771 526.300938,588.88306 526.117265,589.170183 C526.075519,589.34726 526.041223,589.541908 526.014904,589.756295 C525.777054,591.6937 526.561179,592.224525 527.60318,592.807728 C527.755887,592.893197 528.294045,592.854249 528.323569,593.201321 C528.357419,593.599241 527.979498,594.074065 527.438262,594.75061 C527.278592,594.950198 526.917084,594.80317 526.632455,594.800737 C525.31545,594.78948 523.539162,594.412197 521.351284,593.970749 C519.848887,593.66761 518.168351,593.328895 516.323679,593.026366 Z" id="Rectangle"></path>
        </g>
    </g>
</svg>