<?xml version="1.0" encoding="UTF-8"?>
<svg width="502px" height="344px" viewBox="0 0 502 344" version="1.1" xmlns="http://www.w3.org/2000/svg" xmlns:xlink="http://www.w3.org/1999/xlink">
    <!-- Generator: Sketch 62 (91390) - https://sketch.com -->
    <title>Rectangle</title>
    <desc>Created with Sketch.</desc>
    <g id="Page-1" stroke="none" stroke-width="1" fill="none" fill-rule="evenodd" opacity="0.658431468">
        <g id="Artboard-Copy-6" transform="translate(-258.000000, -985.000000)" fill="#D8D8D8" stroke="#979797" stroke-width="4">
            <path d="M730.669094,1203.47327 C730.668944,1203.47263 730.668766,1203.47202 730.66856,1203.47145 C730.668683,1203.47212 730.668889,1203.4727 730.669094,1203.47327 Z M730.214475,1203.81278 C728.418871,1205.41759 727.044584,1206.73851 723.376329,1206.03573 C722.558487,1205.87904 721.992939,1205.61815 721.627001,1205.24172 C721.055854,1204.65419 720.952515,1203.88657 720.808397,1203.28103 C720.422665,1201.66028 719.81333,1200.6706 718.894427,1200.21115 C718.651746,1200.0898 718.392433,1200.00793 718.113984,1199.96537 C716.072116,1200.30581 715.625148,1200.88747 715.318273,1201.50447 C713.349662,1199.96046 712.511487,1197.7183 711.888745,1196.19456 C711.278367,1194.70107 710.665774,1193.73203 710.162476,1193.37253 C709.846195,1193.14662 709.288213,1192.95794 708.517479,1192.82594 C708.158797,1193.03823 707.821168,1193.31158 707.497533,1193.67993 C706.674172,1194.61705 706.472307,1195.56485 706.352276,1196.71057 C706.27916,1197.40848 706.682696,1198.92258 706.105573,1199.21115 C705.588624,1199.46962 704.870862,1199.1258 704.24371,1198.99643 C702.329112,1198.60147 700.725211,1198.65858 699.75061,1199.43826 C699.034567,1200.0111 698.650384,1200.6495 698.479783,1201.29044 C698.290203,1202.00267 698.335608,1202.77542 698.753944,1203.6121 C699.178484,1204.46118 700.153297,1205.5059 701.8906,1206.6641 C703.729416,1207.88998 709.515086,1209.08612 719.408704,1209.95641 C722.41788,1211.61513 724.454082,1213.01917 725.438262,1214.24939 C726.268259,1215.28689 726.207132,1218.52282 726.355641,1221.16957 C726.521158,1224.11944 726.910667,1226.54756 727.4,1227.2 C728.003802,1228.00507 729.015352,1228.62547 730.719101,1228.62547 C731.428456,1228.62547 732.300122,1228.50928 733.33212,1228.25903 L739.456149,1235.14857 C738.733907,1236.21009 738.222863,1236.97111 737.81705,1237.00839 C729.85187,1237.74007 722.383688,1235.92921 717.20158,1234.69098 C716.188411,1234.44889 715.258732,1234.22692 714.424859,1234.04565 C709.67456,1233.01297 706.128831,1230.75641 703.009881,1228.80129 C700.34601,1227.13144 697.947589,1225.67534 695.485071,1225.05971 C692.306765,1224.26514 689.946446,1224.86448 687.603329,1225.51467 C686.012845,1225.95602 684.433558,1226.4471 682.392232,1226.03884 C680.274504,1225.61529 676.0829,1224.37171 671.631366,1223.05651 C665.510018,1221.24795 658.914612,1219.32008 656.227093,1219.01293 C652.627772,1218.60158 649.093648,1219.71969 645.660273,1222.5113 L638.19245,1229.97912 C632.373932,1229.92353 626.307832,1231.66345 620.007722,1235.26351 C611.692496,1240.01507 610.600377,1243.43352 609.737635,1245.84584 C609.584206,1246.27484 609.454915,1246.66736 609.256849,1247.01948 C608.457959,1248.43973 608.45869,1249.77083 609.080797,1251.01505 C609.331895,1251.51724 609.714583,1252.02387 610.253017,1252.51492 L609.906537,1253.03464 C605.288968,1253.20811 602.398975,1253.63404 601.187723,1254.17238 C599.123349,1255.08988 596.505023,1256.6923 593.343786,1259 L590.181324,1259 C585.803634,1263.28571 582.864109,1266.59068 581.334207,1268.89314 C575.450333,1277.74823 572.551551,1286.1418 571.072964,1291.46471 C569.101097,1298.56343 569.875399,1306.20086 573.504492,1314.37163 L571.832495,1315.62563 C564.189355,1311.47227 559.169206,1309.74667 556.779137,1310.01223 C554.219757,1310.29661 551.946594,1311.571 550.026101,1313.96022 C545.817591,1313.80537 543.051125,1313.83423 541.724014,1314.01913 C537.855367,1314.55814 534.830919,1315.53321 532.114268,1316.41531 C529.902256,1317.13355 527.917378,1317.7947 525.797654,1318.01026 C517.626299,1318.84125 514.321957,1318.71511 512.608379,1318.6472 C510.82726,1318.57662 510.271317,1318.62827 509.105573,1319.21115 C508.577275,1319.47529 507.85822,1319.97305 506.961714,1320.61409 C504.537435,1322.34754 500.479731,1325.29947 494.751931,1326.01544 C490.007535,1326.60849 484.451761,1326.03898 479.571602,1325.55522 C476.267616,1325.2277 473.255119,1324.93659 470.944466,1325.00077 C467.780512,1325.08866 465.580933,1325.70212 463.624248,1326.25669 C462.111473,1326.68544 460.778065,1327.0957 459.11094,1327.00308 C457.149728,1326.89412 455.423465,1325.88472 453.869794,1324.11341 C453.296652,1320.97959 453,1318.60886 453,1317 C453,1316.29921 453.139237,1315.83341 453.261684,1315.38764 C453.637538,1314.01932 454.032804,1312.77386 452.897367,1309.36754 C451.89882,1306.3719 451.30539,1305.66277 450.144158,1304.24651 C449.556896,1303.53027 448.792853,1302.5988 447.668626,1300.89742 C446.66695,1299.3815 445.636952,1297.57728 444.483578,1295.56082 C441.300838,1289.99639 437.217535,1282.87829 430.462578,1275.63586 C424.977196,1269.75463 418.221629,1264.38658 410.641884,1258.37616 C403.78324,1252.93754 396.241869,1246.95995 388.371535,1239.54436 C381.620748,1233.18363 370.855116,1221.39125 356.067891,1204.17397 L350.8552,1203.13143 L278.686216,1147 L273.788326,1147 L260.149225,1134.27017 L260.537918,1131.93802 L268.727825,1135.80548 L282.611898,1134.06434 L306.010429,1146.73854 C315.759245,1147.25904 322.433378,1148.50825 325.941356,1150.69684 C329.445213,1152.88287 333.233056,1158.17767 337.469682,1166.39384 L351.080701,1175.14378 C351.497631,1179.1696 353.185294,1181.9743 355.940002,1183.696 C358.583027,1185.34789 362.759643,1186.19166 368.550407,1186.01856 C388.217277,1196.14139 402.471583,1200.33559 411.304114,1198.97674 C424.380638,1196.96497 473.877744,1181.76815 501.840654,1168.81475 C502.432004,1168.54081 503.022515,1168.26776 503.611738,1167.99531 C516.867199,1161.8661 529.42225,1155.96226 536.546961,1147.26764 C539.629893,1143.5054 541.239519,1139.71187 539.940285,1134.51493 C539.175393,1131.45536 536.742391,1128.30948 532.396876,1125.21393 C534.308293,1119.8602 536.077302,1115.79264 537.720583,1113.0196 C539.471113,1110.06559 542.621773,1105.96996 547.156297,1100.7215 C553.858357,1098.42069 559.325756,1094.59044 563.566995,1089.24279 C568.024144,1083.62291 570.516468,1077.09772 571.03112,1069.6621 L565.371683,1056.45674 L571,1050.82843 L571,1040 L583.325521,1040 C586.413833,1039.14348 592.28385,1032.67978 600.664101,1020.1094 C607.748537,1009.48275 611.995027,1000.82002 614.824229,995.045481 C616.462631,991.70142 617.546213,989.375603 618.481974,988.343039 C619.066805,987.697707 620.163627,987.564556 621.550871,987.564556 C623.417728,987.564556 625.79664,987.958657 628.690491,988.718451 L648.997364,1023.24014 L671.482322,1018.74314 L676.782066,1004.61049 L693.113335,1020.94176 L720.232816,1022.87887 L722.125006,1037.07029 L737.221944,1048.93217 L754.083333,1050.61831 C752.393184,1053.25021 751.715907,1056.11205 752.009009,1059.18962 C752.320691,1062.46227 754.13294,1064.27361 755.957282,1065.93207 C757.037562,1066.91413 758.298397,1067.76908 758.020101,1069.71716 C757.668975,1072.17504 755.494977,1073.21942 753.57963,1074.39862 C751.516051,1075.66908 749.505764,1076.99866 748.29947,1078.94729 C746.589927,1081.70886 745.488593,1085.39947 745.069479,1090.04855 C735.375167,1098.83413 730.556735,1104.75762 730.03226,1107.64223 C729.433435,1110.93577 729.536889,1112.82154 729.889385,1113.92764 C730.252361,1115.06662 730.86738,1115.6923 731.552529,1116.09381 C732.255666,1116.50586 733.112082,1116.63772 734.024087,1116.68698 C734.277411,1116.70066 734.602203,1116.58841 734.830748,1116.77249 C734.966857,1116.88212 734.983757,1117.11682 735.038839,1117.39223 C735.617236,1120.28422 735.417937,1123.2529 734.465049,1126.29951 C731.87431,1126.99524 730.629865,1128.1198 730.16171,1129.21216 C729.691426,1130.30949 729.939969,1131.48427 730.666804,1132.87536 C730.878635,1133.28078 731.309677,1133.74641 731.102633,1134.36754 C730.805483,1135.259 730.51922,1136.09976 729.977325,1136.64166 C729.736779,1136.8822 729.417161,1137 729,1137 C728.26452,1137 727.988362,1136.17607 727.606409,1135.68513 C726.790895,1134.63692 725.919112,1133.6643 724.812277,1133.17238 C723.5194,1132.59776 722.198582,1132.42479 720.849042,1132.66653 C716.708995,1126.47907 714.127526,1123.09564 713.2,1122.4 C712.387249,1121.79044 711.524786,1121.46822 710.760151,1121.45111 C709.821152,1121.4301 708.910059,1121.75784 708.165936,1122.75001 C707.568151,1123.54705 707,1125.09592 707,1128 C707,1131.50471 707.973088,1134.68067 709.918414,1137.52817 L709.114036,1143.9632 C704.940402,1147.46292 703.147081,1150.15183 703.006908,1151.83391 C702.912972,1152.96115 703.24999,1153.77599 703.82425,1154.45172 C704.297736,1155.00886 705.022161,1155.46056 705.896526,1155.91846 C706.652908,1156.31456 707.632877,1156.73789 708.211146,1157.89443 C708.747261,1158.96666 708.867122,1159.57295 708.978089,1160.13535 C709.210851,1161.31504 709.381106,1162.37448 711.372533,1165.16248 C714.504795,1169.54764 716.102824,1170.62539 717.992258,1171.72756 C719.289524,1172.4843 720.358802,1172.25141 721.607953,1171.65045 C721.779186,1171.56807 721.965422,1171.35996 722.254931,1171.43825 C722.630294,1171.53977 723.040502,1171.86893 723.585786,1172.41421 C724.469841,1173.29827 725.154526,1173.84589 725.691592,1174.27402 C726.970015,1175.29316 726.780087,1175.65172 727.002495,1180.09988 C727.154635,1183.14266 726.485331,1184.07227 725.780932,1184.88122 C724.673482,1186.15305 723.587906,1187.28472 724.01152,1191.21436 C724.374116,1194.57796 726.63896,1197.75516 728.623542,1200.38337 C729.519475,1201.56986 730.355015,1202.59933 730.667865,1203.46984 C730.645881,1203.42725 730.427946,1203.62199 730.214475,1203.81278 C730.651018,1203.42266 730.430461,1203.61974 730.214475,1203.81278 Z" id="Rectangle"></path>
        </g>
    </g>
</svg>