<?xml version="1.0" encoding="UTF-8"?>
<svg width="229px" height="258px" viewBox="0 0 229 258" version="1.1" xmlns="http://www.w3.org/2000/svg" xmlns:xlink="http://www.w3.org/1999/xlink">
    <!-- Generator: Sketch 62 (91390) - https://sketch.com -->
    <title>Rectangle</title>
    <desc>Created with Sketch.</desc>
    <g id="Page-1" stroke="none" stroke-width="1" fill="none" fill-rule="evenodd" opacity="0.619181554">
        <g id="Artboard-Copy-6" transform="translate(-619.000000, -295.000000)" fill="#D8D8D8" stroke="#979797" stroke-width="4">
            <path d="M824.259995,475.986094 C824.853598,477.033533 825.628089,477.762053 825.023636,481.784 C824.570278,484.800583 823.435413,489.369205 821.102633,496.367544 C819.862969,500.086538 817.839456,500.529474 815.722241,501.045425 C812.812697,501.75446 809.783522,502.560623 807.259956,507.013975 C804.626708,511.660883 804.91673,515.944984 805.234382,519.66398 C805.432069,521.978442 805.846831,524.092104 804.476121,525.704703 C803.630194,526.699911 802.428885,527.135235 800.93505,527.135235 C798.733819,527.135235 795.996163,526.263675 792.701308,524.645494 L786.511042,529.804049 C781.969342,528.559715 778.207139,526.77978 775.241406,524.431908 C773.461321,523.022674 772.173632,521.006924 770.954856,519.158659 C769.581763,517.076372 768.265532,515.185359 766.740555,514.084377 C765.247368,513.006345 763.567968,512.546455 761.514929,513.059715 C759.588923,513.541216 758.245939,514.653949 757.24717,516.233672 C756.200713,517.888818 755.572505,520.140018 754.926793,522.622542 C754.306076,525.008973 753.64686,527.636113 752.272442,529.992258 C751.716998,530.944449 750.103929,531.62671 748.476496,532.500547 C745.789462,533.943328 742.877,535.615074 741.344054,537.878463 C740.134148,539.664887 739.539898,542.970138 739.900907,547.936513 C736.707982,549.74368 733.639033,550.195157 730.683486,549.120413 C728.552228,548.34541 727.828419,546.735979 727.074455,545.311154 C725.666068,542.649614 724.24452,540.361541 720.173259,540.007519 C716.086957,539.652188 712.937055,542.228336 710.253789,544.678374 C709.086465,545.744235 708.109747,547 707,547 C706.106692,547 705.915215,545.994586 705.538192,545.371291 C704.208876,543.173661 702.641001,541 699,541 C695.32256,541 691.933883,542.871993 688.978234,546.955273 C678.926403,546.543606 672.182428,546.572784 668.744057,547.016444 C666.128897,547.353884 663.599926,548.136969 661.159616,549.372284 L662.020624,529.569112 L655.099314,515.726492 L664.889654,514.836461 C665.794823,501.007362 665.168283,494.339856 664.414214,493.585786 C664.13482,493.306393 663.156962,492.610776 660.066139,493.297626 C658.536124,493.637629 656.325737,494.231248 653.435667,495.081269 C648.214698,496.616848 640.736079,498.998673 631,502.227358 L631,489.790025 L621,490.790025 L621,481.088461 C630.448414,474.942793 635.208906,470.697838 635.897367,468.632456 C636.41783,467.071065 636.066323,462.514716 635.544626,457.568283 C635.052291,452.900248 634.466793,447.864075 634.961161,445.392232 C635.492987,442.733105 643.166467,438.539871 649.255837,434.772392 C654.892646,431.284911 659.427895,428.040872 659.897367,426.632456 C660.312736,425.386348 660.788974,417.620224 661.27232,408.569582 C661.939813,396.07078 662.510307,380.840091 663.664101,379.1094 C663.76547,378.957347 669.554161,375.417469 680.71512,368.277189 L682.787576,361.023593 L695.529988,347.664613 L709.163481,346.878588 L708.126178,334.430951 L722.247559,330.01802 L740.765872,331.107332 L744.72547,297.450749 L754,299.591025 L754,322.360921 L763.420483,320.79084 L768.305103,309.067754 L785.780847,309.941541 L791.439248,320.315276 L815.381798,339.269795 C818.890724,346.872465 822.480677,351.620787 825.971008,353.714986 C829.264597,355.691139 835.894146,356.322402 846,355.2453 L846,373.753789 L838.001511,405.747746 C837.827352,434.222739 837.504024,450.563518 837.013474,454.768239 C836.547046,458.766189 834.519399,462.191444 831,465.078466 L831,470.351672 C826.99529,471.249928 824.929649,472.668567 824.211146,474.105573 C824.047857,474.432149 823.927074,474.813819 823.857685,475.252617 C824.004483,475.500943 824.12239,475.743285 824.259995,475.986094 Z" id="Rectangle"></path>
        </g>
    </g>
</svg>