<?xml version="1.0" encoding="UTF-8"?>
<svg width="89px" height="68px" viewBox="0 0 89 68" version="1.1" xmlns="http://www.w3.org/2000/svg" xmlns:xlink="http://www.w3.org/1999/xlink">
    <!-- Generator: Sketch 62 (91390) - https://sketch.com -->
    <title>Rectangle</title>
    <desc>Created with Sketch.</desc>
    <g id="Page-1" stroke="none" stroke-width="1" fill="none" fill-rule="evenodd" opacity="0.581358427">
        <g id="Artboard-Copy-6" transform="translate(-533.000000, -643.000000)" fill="#D8D8D8" stroke="#979797" stroke-width="4">
            <path d="M578.811372,689.166417 C573.759342,684.232475 567.960849,678.596128 559.955431,674.242971 C555.293383,671.707859 547.010338,669.375814 535.07487,667.321458 L535.897121,648.409681 C539.796634,649.111546 542.610509,649.272642 544.343754,648.970237 C547.064024,648.495622 549.417681,647.415311 551.490767,646.4447 C553.13247,645.676061 554.536645,644.878651 555.824212,644.99226 C559.759392,645.339481 562.651462,646.297322 564.329741,648.13005 C565.372311,650.187599 566.340591,651.732809 567.213557,652.780369 C568.615944,654.463232 569.938272,655 571,655 L571.88259,655 L572.477458,654.348005 C572.618199,654.193748 572.660877,653.978102 572.84643,653.910246 C573.65761,654.079984 574.523939,654.580401 575.75061,655.561738 C577.472142,656.938963 577.574648,657.856883 577.596503,658.77359 C577.638108,660.518711 577.609914,662.22822 580.806696,664.605 C581.622979,665.2119 583.341024,665.827471 585.338399,666.464556 C587.234683,667.069398 589.418963,667.738452 590.93448,668.692533 C591.901115,669.30107 593.561144,671.687026 594.030405,674.347414 C594.170567,675.142031 594.088601,675.991934 594.030753,676.800419 C593.944836,678.001193 593.903098,679.137378 594.128596,680.076272 C594.385864,681.147448 594.930819,682.025836 595.892508,682.665371 C596.568522,683.114929 597.70574,683.225355 599.104948,682.99099 C599.490908,682.926342 599.93731,682.734225 600.282623,682.866915 C600.880838,683.096784 601.726257,684.545137 602.027875,686.33275 C602.133161,686.956753 602.084124,687.697328 602.053547,688.414354 C602.003357,689.591305 601.998808,690.721094 602.22206,691.545208 C602.566343,692.81609 603.314785,693.601133 604.454611,693.924201 C605.610474,694.251815 606.917385,693.817632 608.842424,692.068941 C609.931053,691.080038 611.390972,689.718277 613.687135,688.878256 C614.754887,688.487633 616.790244,688.495619 619.762581,688.774834 L617.468233,707.129624 C613.883168,704.298822 610.638938,702.311698 607.748408,701.145307 C605.643615,700.295978 602.881255,700.119395 599.879518,699.98192 C596.601949,699.831812 592.989297,699.722497 589.877671,698.202865 C586.126222,696.370762 582.715233,692.979026 578.811372,689.166417 Z" id="Rectangle"></path>
        </g>
    </g>
</svg>