<?xml version="1.0" encoding="UTF-8"?>
<svg width="243px" height="308px" viewBox="0 0 243 308" version="1.1" xmlns="http://www.w3.org/2000/svg" xmlns:xlink="http://www.w3.org/1999/xlink">
    <!-- Generator: Sketch 62 (91390) - https://sketch.com -->
    <title>Rectangle</title>
    <desc>Created with Sketch.</desc>
    <g id="Page-1" stroke="none" stroke-width="1" fill="none" fill-rule="evenodd" opacity="0.619088925">
        <g id="Artboard-Copy-6" transform="translate(-503.000000, -206.000000)" fill="#D8D8D8" stroke="#979797" stroke-width="4">
            <path d="M662,379 C662,380.960396 659.173878,422.180108 657.211146,426.105573 C656.361668,427.804527 651.82129,430.329449 647.220588,433.144582 C640.835651,437.051473 634.297345,441.371473 633.143047,444.257219 C632.201137,446.611994 632.601039,449.070308 633.302535,452.23297 C634.13153,455.970455 635.237852,460.887409 633.076952,468.450558 C632.219011,471.453353 628.986459,472.66714 626.165834,473.990003 C622.030407,475.929504 618.567365,478.003127 618.021366,481.708437 C617.989641,481.923736 617.926773,482.254045 617.849774,482.664239 C617.533973,484.346599 617.014918,487.194834 617.059576,489.364587 C617.078778,490.297511 617.204411,491.126357 617.430641,491.769946 C617.784494,492.776604 618.385463,493.428799 619.105573,493.788854 C620.400563,494.43635 623.663148,494.672815 629,494.208707 L629,503.395657 L622.307453,504.882889 L603.265503,494.304028 L592.939413,511.858381 L522.515325,503.40749 C525.799826,498.380283 527.161928,494.845788 526.992994,492.832748 C526.446394,486.319382 523.646849,481.419961 521.404221,477.563747 C520.134561,475.380558 518.92733,473.635224 518.997913,472.091341 C519.14948,468.776094 520.685615,465.631735 521.941063,462.965065 C523.383046,459.902183 524.330268,457.344518 523.95634,455.584388 C523.500567,453.439005 522.204937,451.841453 520.389009,450.634511 C518.325379,449.262936 515.537427,448.432318 512.948875,447.697171 C511.274331,447.221601 509.697235,446.800862 508.610802,446.186403 C508.362211,446.045806 508.01874,445.956246 507.974539,445.681888 C506.882487,438.903466 506.701994,432.736385 506.533479,427.117258 C506.423702,423.456743 506.318786,420.022328 505.989668,416.796973 C505.368832,410.712775 509.110269,401.534242 512.610449,392.642221 C515.838437,384.441687 518.907062,376.462028 518.999709,371.034132 C519.055387,367.772079 517.827977,364.828498 515.234213,362.234734 C513.442196,360.442717 510.958452,358.810329 507.763128,357.367071 C516.54158,349.624907 521.835069,344.162187 523.714986,341.028992 C525.671512,337.768114 527.083709,332.401739 527.836031,324.882037 L541.955483,323.940741 C547.633257,317.542724 550,313.528317 550,312 C550,311.297942 549.7165,310.305179 548.360643,309.239863 C547.700361,308.72107 546.715865,308.121865 545.394427,307.461146 C543.292585,306.410225 540.265153,305.157423 536.309582,303.708417 L547.555984,249.350805 L603.936891,260.626986 C601.580822,253.632963 600.561934,248.613967 602.526773,246.291884 C602.736838,246.043625 602.994707,245.960397 603.269773,245.954473 C604.192618,245.934597 605.210639,246.375072 606.21219,246.747393 C607.577796,247.255049 608.922062,247.704901 610.083914,247.733945 C611.398765,247.766814 612.544466,247.365822 613.474308,246.351449 C614.532741,245.196796 614.568418,244.266332 614.404058,243.484751 C614.251442,242.759015 613.726043,242.025431 612.878078,241.237877 C612.368905,240.764979 611.585786,240.191829 611.648774,238.92633 C611.706893,237.758662 612.310032,236.222345 613.683758,234.079332 C614.816354,232.312484 617.318693,230.924703 620.047472,229.280435 C623.197593,227.38228 626.686343,225.253866 629.442176,222.385687 C631.639535,220.098749 634.244299,216.02047 637.215708,210.118725 L641.778399,217.419031 C643.213215,216.279627 643.906451,213.983252 645.233252,213.983252 C645.996472,213.983252 646.746076,214.574503 647.585786,215.414214 C650.298805,218.127232 654.34394,224.677521 659.796719,235 L669.989514,235 L670.085723,216.697991 L681.675118,219.721311 C684.28459,224.273029 686.722216,227.218511 688.8906,228.664101 C690.9166,230.014767 694.241663,231.078788 698.915164,231.751484 C698.321322,245.167297 698.902694,251.731121 699.585786,252.414214 C700.304029,253.132456 704.147507,253.723297 712.029811,253.090425 L728,275.636574 L728,283.659853 L743.772129,286.617127 L738.270597,328.795536 L721.76206,326.961254 L706,332.590562 L706,345 L695.127861,345 L681.239629,359.956557 L679.339132,365.65805 C666.85705,373.056083 662,377.5801 662,379 Z" id="Rectangle"></path>
        </g>
    </g>
</svg>