<?xml version="1.0" encoding="UTF-8"?>
<svg width="1600px" height="1600px" viewBox="0 0 1600 1600" version="1.1" xmlns="http://www.w3.org/2000/svg" xmlns:xlink="http://www.w3.org/1999/xlink">
    <!-- Generator: Sketch 62 (91390) - https://sketch.com -->
    <title>Wyndham</title>
    <desc>Created with Sketch.</desc>
    <g id="Wyndham" stroke="none" stroke-width="1" fill="none" fill-rule="evenodd" opacity="0.596696921">
        <path d="M309.670417,777.505942 C302.682456,789.374939 297.722628,796 294,796 C291.349695,796 290.343569,794.335486 289.45637,793.080797 C288.110303,791.177172 286.82991,790 285,790 C284.382248,790 283.53759,790.142271 282.744116,791.453163 C282.470849,791.904625 282.156491,792.609684 281.766732,793.516161 C280.687874,796.025308 278.843581,800.355247 274.590337,804.58125 C271.311563,807.839026 263.947614,813.274247 252.521133,820.912447 C243.389933,819.635931 235.216125,819 228,819 C226.02028,819 223.304026,820.067297 220.348683,821.327494 C217.597111,822.500801 214.595687,823.830338 211.872665,824.004058 C208.7603,824.202616 204.103107,823.335725 197.897871,821.4856 C197.145015,811.435708 195.788179,805.959752 194.414214,804.585786 C193.016103,803.187676 188.119696,802.094687 179.19045,802.005837 L173.187266,791 L155.012801,791 C151.555207,795.518676 149.071585,798.667093 147.560026,800.443674 C145.850238,802.453239 144.699841,803.559903 143.703369,803.597975 C143.493799,803.605982 143.343742,803.469792 143.197101,803.339924 C142.573338,802.787506 142.071264,801.916541 141.521021,801.034709 C140.24679,798.992598 138.79918,796.965606 136.742781,796.143047 C134.301574,795.166564 131.825046,796.112028 129.783909,797.093229 C129.537772,797.211551 129.307752,797.338993 129.093853,797.443783 C129.007288,796.65183 129.138378,795.370561 129.342939,793.467334 C129.597108,791.102557 130.201421,787.022338 131.152979,781.226321 L115.039832,767.127317 L116.003513,744.962662 C115.545749,739.328249 115.500817,735.480464 115.953027,733.430913 C116.465521,731.108133 117.395597,729.238575 118.197645,727.599133 C119.474595,724.988961 120.348239,722.829756 119.970424,720.657318 C119.599471,718.524339 118.317474,717.118573 116.504348,715.412557 C115.348111,714.324624 113.966402,713.042779 112.711937,710.965943 C111.523865,708.999027 109.895833,704.661947 107.775017,697.982546 L90,678.232528 L90,657.114195 L107.741737,658.099847 L115.731319,597.179283 C135.319661,599.124026 150.248327,601.373635 160.514929,603.940285 C161.653904,604.225029 167.081942,607.865018 176.860575,614.643688 C177.156011,614.848488 177.447371,615.050574 177.733992,615.24849 C178.054095,615.12256 178.381185,614.995657 178.715227,614.867739 C184.416209,612.684622 188.413108,611.634341 190.703319,611.977873 C193.188299,612.35062 195.295895,614.995964 197.44051,619.09332 L211.580121,607.129034 L338.783672,628.992145 L401.46714,631.885228 L400.163741,637.098826 C395.591229,642.822393 387.870591,648.511407 377.064225,654.232424 C375.407504,655.109511 371.490951,656.56833 367.419491,658.096457 C362.126915,660.082901 356.599701,662.196499 354.8906,663.335899 C352.712743,664.787804 351.088866,669.444258 351.003529,678.263213 L340,691.267384 L340,701.332235 C340.72963,703.507942 341.531879,705.083957 342.343821,706.098885 C343.571776,707.633828 344.899809,708.108265 346.181071,707.991786 C347.250562,707.89456 347.972625,707.364528 348.451176,706.435713 C348.716219,705.921292 348.877254,705.174668 349.00256,704.2981 C349.114899,703.512241 349.118956,702.434904 349.950176,701.737495 C350.552034,701.232525 351.531249,701 353,701 C355.117435,701 356.926006,702.433659 358.599385,704.879368 C360.837353,708.150243 362.762597,713.202651 364.446477,720 L380.732354,720 C380.068715,724.086637 378.622159,727.70046 376.37471,730.834483 C375.704578,731.768968 375.836787,734.401239 376.585806,737.485379 C376.96014,739.026724 378.026553,741.051853 377.470967,741.710791 C375.439412,744.120265 371.017975,744.209203 366.735314,744.583138 C363.426008,744.872087 360.082556,745.186811 357.360761,746.104908 C354.106024,747.202773 351.302619,750.009973 348.632592,752.812074 C346.379955,755.176138 344.280641,757.674173 341.732582,758.017959 C333.913032,759.072977 323.194108,765.47102 309.670417,777.505942 Z" id="Rectangle" stroke="#979797" stroke-width="4" fill="#D8D8D8"></path>
    </g>
</svg>