<?xml version="1.0" encoding="UTF-8"?>
<svg width="71px" height="63px" viewBox="0 0 71 63" version="1.1" xmlns="http://www.w3.org/2000/svg" xmlns:xlink="http://www.w3.org/1999/xlink">
    <!-- Generator: Sketch 62 (91390) - https://sketch.com -->
    <title>Rectangle</title>
    <desc>Created with Sketch.</desc>
    <g id="Page-1" stroke="none" stroke-width="1" fill="none" fill-rule="evenodd" opacity="0.571052102">
        <g id="Artboard-Copy-6" transform="translate(-514.000000, -588.000000)" fill="#D8D8D8" stroke="#979797" stroke-width="4">
            <path d="M557.282508,628.236683 C556.965349,631.129759 556.670582,634.663112 558.194593,637.860527 C559.193861,639.957016 562.174683,642.901504 567.324573,646.571744 L566.313415,648.257007 C561.427723,645.402807 557.998032,644.057298 556.058177,644.000846 C552.026635,643.883524 548.961686,645.55971 546.58924,646.916528 C545.67902,647.437089 544.950439,648.121179 544.299611,648.022569 C541.407872,647.584427 538.677462,646.569349 536.105816,644.983959 L538.184088,623.162098 L525.229605,622.1656 L527.171273,605.661426 L516.414036,601.749704 L518.371967,594.570625 C523.30208,596.135304 526.385792,596.399749 527.742781,595.856953 C528.537739,595.53897 529.131001,595.005114 529.528043,594.261464 C529.828081,593.699497 530.018345,592.984447 530.018345,592.092662 C530.018345,591.504229 529.928887,590.806197 529.739045,590 L534.544044,590 C536.373804,595.458761 538.255101,598.573768 539.8906,599.664101 C541.126157,600.487805 542.64423,600.745689 544.491652,600.217855 C545.730561,599.863881 547.164004,599.116708 548.769583,597.926799 L574.595974,595.0572 C578.227221,597.056564 580.678022,598.872585 581.835899,600.6094 C582.201916,601.158425 582.430187,601.677219 582.383214,602.193929 C582.337603,602.69564 582.029529,603.142044 581.585786,603.585786 C580.204819,604.966753 577.870155,605.5 574.75,605.5 C570.622615,605.5 565.195944,604.476041 558.464868,602.477619 L556.828922,610.657349 L561.774495,615.602922 L560.146136,616.579938 L551.382984,609.764153 L544.883417,611.930676 L547.840663,616.366545 C547.774353,616.404466 547.711089,616.444352 547.650721,616.485788 C547.067346,616.886207 546.652998,617.471906 546.522729,618.321187 C546.356545,619.404621 547.041278,621.667468 549.335899,625.1094 C549.507604,625.366957 549.676681,625.613654 549.843009,625.849356 C550.153753,625.934953 550.512627,625.987906 550.947567,625.999313 C552.286801,626.034435 552.926486,625.638394 553.667433,625.113474 C554.239111,624.708471 554.979539,623.992209 555.883663,624.064454 C556.40011,624.105722 556.879768,624.521304 557.41252,625.216514 C557.867831,625.810669 557.417666,627.003792 557.282508,628.236683 Z" id="Rectangle"></path>
        </g>
    </g>
</svg>