<?xml version="1.0" encoding="UTF-8"?>
<svg width="755px" height="500px" viewBox="0 0 755 500" version="1.1" xmlns="http://www.w3.org/2000/svg" xmlns:xlink="http://www.w3.org/1999/xlink">
    <!-- Generator: Sketch 62 (91390) - https://sketch.com -->
    <title>Rectangle</title>
    <desc>Created with Sketch.</desc>
    <g id="Page-1" stroke="none" stroke-width="1" fill="none" fill-rule="evenodd" opacity="0.589305923">
        <g id="Artboard-Copy-6" transform="translate(-778.000000, -294.000000)" fill="#D8D8D8" stroke="#979797" stroke-width="4">
            <path d="M1530.34055,391.86367 C1529.31893,390.687528 1528.12302,389.991319 1526.80455,389.698326 C1524.91782,389.279053 1522.63605,389.705695 1519.9804,391.279417 C1518.33767,392.252881 1517.12815,395.293039 1516.01346,399.283863 C1515.0372,402.779091 1513.9542,406.954496 1511.51449,409.660868 C1510.69177,409.629041 1509.87233,409.351985 1509.04886,409.111248 C1507.84917,408.760525 1506.64487,408.442113 1505.6193,408.435052 C1504.40036,408.42666 1503.377,408.794568 1502.58579,409.585786 C1501.91746,410.254114 1501.45712,411.452407 1501.66848,413.338952 C1501.82426,414.729434 1502.31337,416.587448 1502.86656,418.640212 C1503.90464,422.49231 1505.38363,427.212033 1504.14782,430.245406 C1503.83572,431.011469 1503.44581,431.507955 1502.93729,431.797076 C1502.05116,432.300877 1500.96306,432.324788 1499.81779,432.424106 C1496.7928,432.686434 1493.43856,433.083386 1490.45209,436.733524 C1487.37984,440.488492 1485.8175,444.8722 1485.80503,449.896491 C1484.11417,449.369675 1482.68643,449.280989 1481.52398,449.539312 C1480.33309,449.803953 1479.34692,450.401345 1478.5643,451.329609 C1477.89769,452.120286 1477.37364,453.179918 1477.05317,454.541921 C1476.19353,458.195378 1477.49674,460.135791 1479.23966,462.422518 C1480.49793,464.073377 1482,465.998822 1482,470 C1482,473.896617 1481.23732,476.331738 1480.59314,478.413735 C1479.68618,481.345036 1479.01495,483.699986 1480.07201,487.531858 C1481.03142,491.009689 1483.37427,492.411582 1485.87311,493.722085 C1487.74941,494.706104 1489.76229,495.622058 1490.00474,499.137604 C1490.24037,502.554184 1488.21989,504.390717 1486.42232,506.235042 C1483.78799,508.937899 1481.43838,511.631538 1482.01544,516.248069 C1482.70785,521.787308 1486.71865,527.229472 1494.4591,532.38092 C1500.43518,544.136636 1503.6594,553.039267 1504.0032,559.113027 C1504.33719,565.013663 1502.16607,572.710295 1497.63652,582.221038 L1486.50534,584.310801 C1487.86188,590.378524 1487.86449,595.068941 1486.19089,598.307162 C1484.81878,600.96203 1482.27174,602.473125 1478.69589,603.023257 C1475.27353,603.549772 1472.6414,603.091788 1471.01851,601.198417 C1469.17178,599.043896 1468.65193,595.374993 1469.04904,590.380777 L1450.44011,566.298626 C1438.52553,574.329401 1428.84091,579.61151 1421.36754,582.102633 C1414.3356,584.446613 1404.06704,586.052792 1390.57053,586.958059 L1380.63044,580 L1342.7763,580 C1333.99943,572.024016 1327.98466,568.691559 1324.80099,569.009926 C1323.87018,569.103007 1323.17327,569.419659 1322.63299,569.852652 C1322.02989,570.335993 1321.59914,570.987478 1321.34724,571.808332 C1320.96624,573.049858 1321.08441,574.84943 1321.30145,576.796545 C1321.51884,578.746759 1322.20984,581.221713 1320.71963,582.463557 C1318.13077,584.620941 1312.88643,584.81953 1305.32729,583.770221 L1301.83353,605.897381 L1311.44877,612.890284 C1306.92367,616.048719 1305,619.159179 1305,622 C1305,624.682036 1307.29347,627.683955 1309.76171,630.504503 C1311.23612,632.189361 1312.87831,633.752156 1313.00821,635.181071 C1313.17462,637.01156 1311.57556,639.067816 1308.86335,641.478995 L1292.76215,630.409419 L1283.95169,639.219886 C1271.91663,628.031529 1262.29631,620.072691 1255.10063,615.330084 C1251.1726,612.741157 1247.96237,611.119516 1245.49094,610.413394 C1244.00382,609.988503 1242.73608,609.879645 1241.68995,610.020123 C1240.2486,610.213671 1239.14988,610.852695 1238.34884,611.858408 L1231.13948,624.474783 L1220.17963,619.908179 C1210.36931,622.101256 1204.20724,625.16676 1201.41743,628.777105 C1199.49516,631.264753 1198.68003,633.720551 1198.49728,635.913524 C1198.24107,638.988066 1199.24011,641.577085 1200.37253,643.162476 C1201.03635,644.091813 1201.93185,644.510129 1203.07115,644.517197 C1203.83205,644.521918 1204.77935,644.264459 1205.83271,643.921887 C1206.85481,643.589484 1208.06196,643.090454 1209.2756,643.3991 C1210.00501,643.584601 1210.68202,644.128575 1211.3359,645.1094 C1212.6684,647.108152 1215.6257,652.86602 1215.02429,656.689215 C1214.86673,657.690853 1214.12933,658.332395 1213.49634,659.021052 C1211.75165,660.919173 1210.18624,662.875677 1211.0561,666.470391 C1211.47112,668.18544 1213.99548,670.396458 1216.9708,672.5677 C1218.70788,673.835332 1220.5201,675.123369 1221.57344,676.392335 C1221.81432,676.682529 1222.01744,676.957665 1222.10474,677.241429 C1222.01726,677.591304 1221.62933,677.606821 1221.32626,677.690851 C1220.03852,678.047897 1218.27576,678.055039 1216.41106,678.093216 C1212.48292,678.173639 1208.27261,678.447159 1205.76071,680.430234 C1204.3773,681.522405 1203.93161,682.686917 1203.88263,683.849188 C1203.83261,685.036432 1204.34193,686.318788 1204.99986,687.669839 C1205.48765,688.671522 1206.27201,689.787033 1205.74866,691.055559 C1205.32217,692.089322 1204.15625,693.091145 1202.0423,694.244209 C1196.30626,697.372958 1191.12489,697.014768 1186.70517,696.761706 C1182.49845,696.52084 1178.90629,696.462847 1175.94527,698.30072 C1173.97782,699.521899 1173.02718,700.862839 1172.56117,702.228195 C1171.99292,703.893095 1172.21589,705.680611 1172.55739,707.598047 C1172.85496,709.268792 1173.2953,711.101807 1172.24142,713.047434 C1170.45946,716.3372 1167.49855,719.305728 1163.40978,721.998132 C1155.63346,721.94831 1150.46921,720.894717 1148.71499,717.971008 C1147.49533,715.938254 1147.22894,713.281733 1146.91652,710.783599 C1146.40365,706.682512 1145.63545,703.103501 1143.14692,701.361536 C1140.5718,699.558948 1137.56073,700.282302 1133.98797,701.613552 C1131.92906,702.380724 1129.67357,703.295219 1127.22925,703.013182 C1124.71564,702.723151 1122.82843,701.48655 1121.24229,700.495028 C1119.87352,699.639387 1118.66135,698.940497 1117.54185,698.683218 C1116.28264,698.393833 1115.08903,698.536948 1113.8906,699.335899 C1112.00892,700.590352 1110.09403,703.338664 1108.41702,705.865321 C1107.40972,707.382969 1106.5229,708.810701 1105.73881,709.447772 C1105.14045,709.933945 1104.1468,709.862511 1103.23378,709.939441 C1101.87886,710.053604 1100.53806,710.218239 1099.49933,710.706164 C1098.38929,711.227586 1097.54071,712.053328 1097.10263,713.367544 C1096.60409,714.86318 1097.19868,716.586616 1098.26535,718.532716 C1098.8301,719.563088 1099.59505,720.685973 1099.44161,721.954903 C1099.34308,722.769778 1098.78571,723.575159 1097.71963,724.463557 C1096.83527,725.200526 1096.22971,725.639921 1095.7637,725.824775 C1094.90899,725.108674 1094.03222,724.504983 1092.40243,724.752504 C1091.59449,724.875208 1090.47802,725.277618 1088.8906,726.335899 C1086.84548,727.699312 1085.56351,729.733271 1084.32103,731.831479 C1083.10846,733.879166 1081.97574,736.084822 1079.21975,736.917582 C1077.06556,737.568503 1074.04806,737.400013 1069.56433,736.081269 C1065.59438,734.913637 1063.46109,733.824103 1062.61807,732.578572 C1062.37672,732.221969 1062.3316,731.866707 1062.39806,731.519534 C1062.57615,730.589265 1063.22086,729.7164 1063.76245,728.894287 C1064.47184,727.817482 1065.07773,726.796065 1065.29083,725.905347 C1065.5835,724.682058 1065.36497,723.59128 1064.45403,722.626753 C1062.31362,720.360437 1059.44189,719.672452 1056.46539,719.092207 C1055.19719,718.844983 1053.91915,718.607582 1052.73461,718.139797 C1049.74241,716.958158 1046.98432,715.295316 1044.51708,713.816499 C1041.2874,711.880694 1038.47903,710.30024 1036.25326,710.0161 C1031.1013,709.358403 1026.76671,711.207867 1023.19142,712.802488 C1021.13226,713.720902 1019.33651,714.932185 1017.89443,714.211146 C1015.91401,713.220937 1014.13951,708.194041 1012.18284,703.568174 C1010.24403,698.984525 1008.26898,694.514193 1006.44167,692.613783 C1003.77285,689.838213 1001.06076,689.483223 997.96066,689.205855 C996.365337,689.063121 994.649509,688.931886 992.764704,688.151966 C989.822823,686.934637 986.080579,681.528588 983.543889,678.05441 C982.509887,676.63827 981.658878,675.483923 981.114945,674.883313 C980.572112,674.283916 980.097595,674.026611 979.82743,673.930144 L977.42397,673.071953 L977.165195,675.61088 C977.011274,677.121059 977.630548,685.921113 978.928919,702.192465 C970.43524,710.045529 964.999765,714.438506 962.514929,715.059715 C960.953832,715.449989 957.312698,715.487748 953.301761,715.565904 C946.861399,715.691399 939.600945,715.963459 937.105573,717.211146 C934.918554,718.304655 933.674884,720.093788 932.44982,722.016099 C931.462965,723.564624 930.496473,725.247345 928.257219,726.143047 C927.839074,726.310305 927.519176,726.474865 927.276006,726.380065 C926.904043,726.235054 926.826208,725.748517 926.631528,725.407664 C926.041689,724.374956 925.367676,723.360133 924.315941,722.712165 C923.460932,722.185399 922.356757,721.846134 920.79063,722.010989 C917.416382,722.366173 916.374887,723.627557 915.108956,725.212784 C914.373212,726.1341 913.513721,727.219866 911.242734,728.148906 C909.368201,728.915761 908.381648,728.883691 907.435481,728.848799 C905.473842,728.77646 903.61868,728.590521 897.905501,732.326061 C893.567832,735.162229 892.075955,738.008876 890.804478,740.471882 C889.762681,742.48997 888.952498,744.200323 885.514929,745.059715 C881.646545,746.026811 879.267726,743.723958 877.433874,742.137017 C876.314749,741.168571 875.313808,740.372503 874.403832,740.008664 C873.181308,739.519857 872.034826,739.573082 870.8906,740.335899 C867.682397,742.474701 864.360579,749.420942 862.041732,760.593567 C861.478521,763.307224 862.210112,766.847311 863.175635,770.991081 C864.066612,774.814916 865.109582,779.212083 865.000529,783.954017 C864.958329,785.788994 863.569262,788.39753 861.104766,791.83387 L788.426559,780.358364 C792.288036,763.370769 794.471208,751.637541 794.993528,745.160768 C795.368605,740.509817 793.875313,736.45897 792.421543,732.672636 C790.9003,728.710566 789.212286,725.033935 791.695997,721.059998 C792.036561,720.515094 792.416593,720.198042 792.887478,720.090137 C793.874155,719.864038 795.010929,720.177146 796.252953,720.433317 C797.393138,720.668483 798.604145,720.912279 799.868372,720.995664 C802.803359,721.189246 805.912156,720.9201 808.359238,720.308329 C811.414024,719.544633 813.305113,718.122382 813.856953,716.742781 C814.232184,715.804705 814.197222,714.900563 813.819438,714.020347 C813.534615,713.356726 813.011064,712.681547 812.235677,712.043077 C810.888518,710.933798 808.622137,709.846133 806.213634,708.727849 C803.230055,707.342555 799.819837,705.993046 798.755791,704.042296 C798.485996,703.547671 798.287297,703.20163 798.321729,702.902855 C798.361148,702.560796 798.713408,702.392787 798.957946,702.127438 C800.251143,700.724188 802,698.865955 802,694 C802,690.360649 800.182662,687.023404 798.489255,684.084893 C797.483976,682.340469 796.427171,680.797745 796.464229,679.415887 C796.470928,679.166099 796.546229,678.93127 796.712063,678.711323 C796.974473,678.363285 797.390035,678.061492 797.9482,677.760942 C799.501957,676.924304 800.968133,677.952663 803.115623,678.901182 C805.244798,679.841611 807.906337,681.012149 811.501787,681.936952 C815.245477,682.899885 822.994592,682.904891 827.235643,679.572637 C829.459104,677.825631 830.134572,676.248666 830.210435,674.810736 C830.299446,673.123608 829.380468,671.431244 828.048091,669.461125 C827.922035,669.274733 827.793529,669.084743 827.664101,668.8906 C826.919063,667.773043 825.095774,666.912305 821.953262,665.928495 C820.501653,665.474047 818.746853,664.925756 816.727653,664.137066 C815.517671,663.664454 813.599549,662.572306 810.962246,660.884342 C810.390832,644.813412 809.607746,635.942999 808.827623,634.187723 C808.504844,633.46147 808.005487,632.991245 807.390069,632.698125 C806.892101,632.460946 806.283318,632.342658 805.570284,632.396612 C804.606223,632.469561 803.316426,632.933689 801.977959,633.46545 C800.877014,633.902846 799.724249,634.456737 798.831877,634.406137 C798.13032,631.732524 799.251969,623.356978 801.963392,609.380907 C802.01272,602.565335 800.323534,594.66432 796.876686,585.308589 C796.287091,583.708259 795.003328,582.263863 793.601016,580.792441 C792.558172,579.698203 791.434964,578.581754 790.833572,577.201242 C790.35061,576.092589 790.343287,574.779617 790.28418,573.442857 C790.193226,571.38586 790.044967,569.279377 789.136152,567.393104 C788.597358,566.274821 787.229174,564.934858 785.56709,563.441556 C783.880244,561.926006 781.860651,560.17407 780.775856,558.080035 C780.164812,556.900505 780.334061,553.515939 780.897706,548.07672 L789.102302,541.923273 L788.08438,531.744047 L793.124965,526.703462 C795.35436,528.457072 797.327527,529.533242 799.01622,529.993795 C800.300138,530.343954 801.459932,530.365962 802.496299,530.118522 C803.609554,529.852726 804.601363,529.279207 805.4564,528.370729 C807.361647,526.346404 807.229789,524.025613 806.562639,520.753055 C805.977574,517.883151 805.175207,514.121722 807.788854,508.894427 C808.801326,506.869484 811.22236,506.301514 813.58291,505.502576 C816.346924,504.567084 819.221343,503.525559 821.387006,501.440907 C822.974481,499.912816 824.331097,495.979999 824.981032,489.292877 L827.097017,478.712955 C826.280805,477.141295 825.757959,475.873056 825.594072,474.889735 C825.561723,474.695641 825.390899,474.447586 825.505153,474.317009 C826.332459,473.371517 829.566309,473.223688 834.329463,472.811251 L833.122142,465.567324 C836.358229,461.568701 838.263196,458.193428 838.940285,455.485071 C839.611048,452.80202 840.323006,436.077352 840.994114,405.292141 L848.988266,376.31334 L849.92452,354.779503 C866.376509,352.728168 875.395484,350.432943 877.414214,348.414214 C879.433612,346.394815 880.523908,342.359275 880.163815,336 L890.495872,336 C890.160696,337.675083 890,339.008783 890,340 C890,341.076923 890.195098,341.862332 890.461146,342.394427 C890.596849,342.665833 890.796351,342.962015 891.074128,343.272962 C891.395059,343.360507 891.670673,343.427457 891.892229,343.46774 C894.423591,343.927988 904.78544,343.613867 907.585786,346.414214 C908.724711,347.553138 908.5,349.326271 908.5,350.875 C908.5,353.864407 908.903546,356.339398 910.8906,357.664101 C912.598612,358.802776 917.086551,358.567246 921.748069,357.984556 C925.086551,357.567246 928.598612,356.802776 929.8906,357.664101 C931.034007,358.426372 930.5,360.972973 930.5,363 C930.5,366.972973 931.034007,370.426372 932.8906,371.664101 C936.041881,373.764955 954.515127,376.894513 961.267836,375.981985 C963.425167,375.690454 964.788389,374.74314 965.72535,373.524856 C966.834103,372.083201 967.276014,370.14309 967.613335,368.322329 C967.775043,367.44947 967.873716,366.610324 968.213848,366.038234 C968.575782,365.943592 968.831299,366.173903 969.08296,366.385293 C969.959657,367.121702 970.719793,368.307793 971.476892,369.431336 C973.298455,372.134554 975.180559,374 977,374 C978.274927,374 980.221584,372.818429 982.42108,371.107444 C984.142158,369.76862 986.097304,368.151099 988.041747,367.696097 C988.927884,367.488739 989.799857,367.628284 990.585786,368.414214 C991.696347,369.524774 992.311447,373.936583 993.009186,381.191467 C999.388525,395.405408 1004.57611,402.494289 1008.30537,403.875498 C1009.58615,404.34986 1010.94117,404.392769 1012.37232,403.963212 C1013.57674,403.601709 1014.85726,402.883289 1016.18838,401.756955 C1018.4772,399.820261 1021.0029,396.589755 1023.71902,392.022234 C1023.82512,391.843816 1023.92957,391.666626 1024.03196,391.490387 C1024.0192,391.295532 1024.00768,391.097787 1023.99736,390.897179 C1023.78949,386.859384 1024.18134,383.925901 1025.54386,382.271415 C1026.89859,380.626382 1030.22367,378.727947 1035.39412,376.444213 L1043.20101,386.20282 C1050.09216,384.755138 1055.12069,384.530383 1058.22072,385.841935 C1061.16046,387.085672 1064.49376,390.589693 1068.35845,396.142501 C1075.44294,403.09634 1080.01788,408.288266 1082.2896,412.036603 C1084.63152,415.900765 1086.60127,421.695578 1088.25814,429.394189 L1105.16799,437.285456 L1157.33974,402.852101 C1153.36312,389.545922 1151.52467,381.449122 1152.78463,378.903157 C1153.21559,378.871138 1153.744,379.07687 1154.38377,379.372149 C1156.54303,380.368731 1159.48008,382.599339 1163.23231,386 L1177.53113,386 L1191.50329,378.015909 C1205.96674,378.412121 1214.80474,375.913263 1218.55751,371.254659 C1221.89811,367.10771 1221.7218,358.500735 1221.32958,351.010925 C1221.10051,346.636359 1220.63049,342.659814 1221.6641,341.1094 C1222.05259,340.526659 1222.77448,340.426234 1223.52045,340.375878 C1225.39595,340.249277 1227.73042,340.780912 1229.95662,341.255741 C1232.9217,341.888168 1235.71545,342.373812 1237.47587,341.942562 C1240.68995,341.155208 1242.64171,339.191574 1244.21955,337.519501 C1244.82548,336.877392 1245.2447,335.990475 1245.97434,335.999835 C1247.52846,336.019773 1248.71,338.107038 1249.92467,339.626232 C1252.16867,342.432811 1254.35128,344.231991 1256.25868,343.983201 C1261.06261,343.356601 1264.33865,342.204374 1266.19244,340.721339 C1267.44429,339.719864 1268.1542,338.552009 1268.4166,337.271067 C1268.66028,336.081504 1268.51691,334.751586 1267.87316,333.288622 C1266.64914,329.3562 1265.99735,326.596697 1266,325.003326 C1266.00287,323.274533 1266.62447,321.752659 1267.113,320.476837 C1267.64355,319.091251 1268.0207,317.900334 1267.9995,316.955152 C1267.95001,314.748622 1267.33965,312.816918 1266.76151,311.06037 C1266.39537,309.94791 1266.02485,308.929948 1265.99932,307.948026 C1265.88555,303.571191 1267.0696,300.686262 1267.62828,299.319753 C1267.73312,299.063305 1267.81961,298.849582 1267.88111,298.679289 C1268.0674,298.16341 1268.6803,297.832993 1269.31732,297.538454 C1270.36082,297.055977 1271.66962,296.784125 1272.95526,296.784125 C1273.99768,296.784125 1275.03442,296.957165 1275.87534,297.404541 C1276.43226,297.700832 1276.89703,298.127744 1277.14305,298.742781 C1277.62815,299.955541 1277.50685,300.589127 1277.3542,302.336047 C1277.24323,303.605836 1277.09204,305.338402 1277.00123,307.929961 C1276.955,309.249143 1276.86695,310.759553 1276.77294,312.376185 C1276.27187,320.992418 1276.07711,332.000623 1279.60529,335.433452 C1284.89159,340.576884 1296.56179,341.764243 1315.17236,338.005741 L1524.10992,343.975385 C1525.17705,345.166369 1525.85445,346.265435 1526.02588,347.320705 C1526.81265,352.163724 1526.42454,357.293372 1526.17399,360.738379 C1526.07423,362.110082 1525.99557,363.236265 1526.00003,364.011507 C1526.01292,366.251811 1525.09343,367.934047 1524.3607,369.366239 C1523.41583,371.213097 1522.79745,372.788196 1523.02182,374.294628 C1523.40849,376.8908 1525.46094,379.119449 1527.52161,381.121617 C1528.61812,382.186995 1529.90616,383.099477 1530.00884,384.187845 C1530.32227,387.510227 1530.44257,390.069826 1530.34055,391.86367 Z" id="Rectangle"></path>
        </g>
    </g>
</svg>